<?xml version="1.0" encoding="utf-8" standalone="no"?>
<!DOCTYPE svg PUBLIC "-//W3C//DTD SVG 1.1//EN"
  "http://www.w3.org/Graphics/SVG/1.1/DTD/svg11.dtd">
<svg xmlns:xlink="http://www.w3.org/1999/xlink" width="876.6pt" height="435.10375pt" viewBox="0 0 876.6 435.10375" xmlns="http://www.w3.org/2000/svg" version="1.1">
 <metadata>
  <rdf:RDF xmlns:dc="http://purl.org/dc/elements/1.1/" xmlns:cc="http://creativecommons.org/ns#" xmlns:rdf="http://www.w3.org/1999/02/22-rdf-syntax-ns#">
   <cc:Work>
    <dc:type rdf:resource="http://purl.org/dc/dcmitype/StillImage"/>
    <dc:date>2026-09-25T13:11:10.778847</dc:date>
    <dc:format>image/svg+xml</dc:format>
    <dc:creator>
     <cc:Agent>
      <dc:title>Matplotlib v3.10.8, https://matplotlib.org/</dc:title>
     </cc:Agent>
    </dc:creator>
   </cc:Work>
  </rdf:RDF>
 </metadata>
 <defs>
  <style type="text/css">*{stroke-linejoin: round; stroke-linecap: butt}</style>
 </defs>
 <g id="figure_1">
  <g id="patch_1">
   <path d="M 0 435.10375 
L 876.6 435.10375 
L 876.6 0 
L 0 0 
z
" style="fill: #ffffff"/>
  </g>
  <g id="axes_1">
   <g id="patch_2">
    <path d="M 156.67 315.16 
L 685.994262 315.16 
L 685.994262 114 
L 156.67 114 
z
" style="fill: #ffffff"/>
   </g>
   <g id="patch_3">
    <path d="M 156.67 186.291875 
L 685.994262 186.291875 
L 685.994262 242.868125 
L 156.67 242.868125 
z
" clip-path="url(#pc77b1a28e9)" style="fill: #f1f3f5; stroke: #f1f3f5; stroke-linejoin: miter"/>
   </g>
   <g id="patch_4">
    <path d="M 156.67 249.154375 
L 685.994262 249.154375 
L 685.994262 305.730625 
L 156.67 305.730625 
z
" clip-path="url(#pc77b1a28e9)" style="fill: #f1f3f5; stroke: #f1f3f5; stroke-linejoin: miter"/>
   </g>
   <g id="matplotlib.axis_1">
    <g id="xtick_1">
     <g id="line2d_1">
      <path d="M 169.272959 315.16 
L 169.272959 114 
" clip-path="url(#pc77b1a28e9)" style="fill: none; stroke: #e9edf0; stroke-width: 0.8; stroke-linecap: square"/>
     </g>
     <g id="line2d_2">
      <defs>
       <path id="mb53128ebd7" d="M 0 0 
L 0 3.5 
" style="stroke: #000000; stroke-width: 0.8"/>
      </defs>
      <g>
       <use xlink:href="#mb53128ebd7" x="169.272959" y="315.16" style="stroke: #000000; stroke-width: 0.8"/>
      </g>
     </g>
     <g id="text_1">
      <!-- 0.0 -->
      <g transform="translate(161.321396 329.758437) scale(0.1 -0.1)">
       <defs>
        <path id="DejaVuSans-30" d="M 2034 4250 
Q 1547 4250 1301 3770 
Q 1056 3291 1056 2328 
Q 1056 1369 1301 889 
Q 1547 409 2034 409 
Q 2525 409 2770 889 
Q 3016 1369 3016 2328 
Q 3016 3291 2770 3770 
Q 2525 4250 2034 4250 
z
M 2034 4750 
Q 2819 4750 3233 4129 
Q 3647 3509 3647 2328 
Q 3647 1150 3233 529 
Q 2819 -91 2034 -91 
Q 1250 -91 836 529 
Q 422 1150 422 2328 
Q 422 3509 836 4129 
Q 1250 4750 2034 4750 
z
" transform="scale(0.015625)"/>
        <path id="DejaVuSans-2e" d="M 684 794 
L 1344 794 
L 1344 0 
L 684 0 
L 684 794 
z
" transform="scale(0.015625)"/>
       </defs>
       <use xlink:href="#DejaVuSans-30"/>
       <use xlink:href="#DejaVuSans-2e" transform="translate(63.623047 0)"/>
       <use xlink:href="#DejaVuSans-30" transform="translate(95.410156 0)"/>
      </g>
     </g>
    </g>
    <g id="xtick_2">
     <g id="line2d_3">
      <path d="M 270.096628 315.16 
L 270.096628 114 
" clip-path="url(#pc77b1a28e9)" style="fill: none; stroke: #e9edf0; stroke-width: 0.8; stroke-linecap: square"/>
     </g>
     <g id="line2d_4">
      <g>
       <use xlink:href="#mb53128ebd7" x="270.096628" y="315.16" style="stroke: #000000; stroke-width: 0.8"/>
      </g>
     </g>
     <g id="text_2">
      <!-- 0.2 -->
      <g transform="translate(262.145065 329.758437) scale(0.1 -0.1)">
       <defs>
        <path id="DejaVuSans-32" d="M 1228 531 
L 3431 531 
L 3431 0 
L 469 0 
L 469 531 
Q 828 903 1448 1529 
Q 2069 2156 2228 2338 
Q 2531 2678 2651 2914 
Q 2772 3150 2772 3378 
Q 2772 3750 2511 3984 
Q 2250 4219 1831 4219 
Q 1534 4219 1204 4116 
Q 875 4013 500 3803 
L 500 4441 
Q 881 4594 1212 4672 
Q 1544 4750 1819 4750 
Q 2544 4750 2975 4387 
Q 3406 4025 3406 3419 
Q 3406 3131 3298 2873 
Q 3191 2616 2906 2266 
Q 2828 2175 2409 1742 
Q 1991 1309 1228 531 
z
" transform="scale(0.015625)"/>
       </defs>
       <use xlink:href="#DejaVuSans-30"/>
       <use xlink:href="#DejaVuSans-2e" transform="translate(63.623047 0)"/>
       <use xlink:href="#DejaVuSans-32" transform="translate(95.410156 0)"/>
      </g>
     </g>
    </g>
    <g id="xtick_3">
     <g id="line2d_5">
      <path d="M 370.920297 315.16 
L 370.920297 114 
" clip-path="url(#pc77b1a28e9)" style="fill: none; stroke: #e9edf0; stroke-width: 0.8; stroke-linecap: square"/>
     </g>
     <g id="line2d_6">
      <g>
       <use xlink:href="#mb53128ebd7" x="370.920297" y="315.16" style="stroke: #000000; stroke-width: 0.8"/>
      </g>
     </g>
     <g id="text_3">
      <!-- 0.4 -->
      <g transform="translate(362.968734 329.758437) scale(0.1 -0.1)">
       <defs>
        <path id="DejaVuSans-34" d="M 2419 4116 
L 825 1625 
L 2419 1625 
L 2419 4116 
z
M 2253 4666 
L 3047 4666 
L 3047 1625 
L 3713 1625 
L 3713 1100 
L 3047 1100 
L 3047 0 
L 2419 0 
L 2419 1100 
L 313 1100 
L 313 1709 
L 2253 4666 
z
" transform="scale(0.015625)"/>
       </defs>
       <use xlink:href="#DejaVuSans-30"/>
       <use xlink:href="#DejaVuSans-2e" transform="translate(63.623047 0)"/>
       <use xlink:href="#DejaVuSans-34" transform="translate(95.410156 0)"/>
      </g>
     </g>
    </g>
    <g id="xtick_4">
     <g id="line2d_7">
      <path d="M 471.743966 315.16 
L 471.743966 114 
" clip-path="url(#pc77b1a28e9)" style="fill: none; stroke: #e9edf0; stroke-width: 0.8; stroke-linecap: square"/>
     </g>
     <g id="line2d_8">
      <g>
       <use xlink:href="#mb53128ebd7" x="471.743966" y="315.16" style="stroke: #000000; stroke-width: 0.8"/>
      </g>
     </g>
     <g id="text_4">
      <!-- 0.6 -->
      <g transform="translate(463.792403 329.758437) scale(0.1 -0.1)">
       <defs>
        <path id="DejaVuSans-36" d="M 2113 2584 
Q 1688 2584 1439 2293 
Q 1191 2003 1191 1497 
Q 1191 994 1439 701 
Q 1688 409 2113 409 
Q 2538 409 2786 701 
Q 3034 994 3034 1497 
Q 3034 2003 2786 2293 
Q 2538 2584 2113 2584 
z
M 3366 4563 
L 3366 3988 
Q 3128 4100 2886 4159 
Q 2644 4219 2406 4219 
Q 1781 4219 1451 3797 
Q 1122 3375 1075 2522 
Q 1259 2794 1537 2939 
Q 1816 3084 2150 3084 
Q 2853 3084 3261 2657 
Q 3669 2231 3669 1497 
Q 3669 778 3244 343 
Q 2819 -91 2113 -91 
Q 1303 -91 875 529 
Q 447 1150 447 2328 
Q 447 3434 972 4092 
Q 1497 4750 2381 4750 
Q 2619 4750 2861 4703 
Q 3103 4656 3366 4563 
z
" transform="scale(0.015625)"/>
       </defs>
       <use xlink:href="#DejaVuSans-30"/>
       <use xlink:href="#DejaVuSans-2e" transform="translate(63.623047 0)"/>
       <use xlink:href="#DejaVuSans-36" transform="translate(95.410156 0)"/>
      </g>
     </g>
    </g>
    <g id="xtick_5">
     <g id="line2d_9">
      <path d="M 572.567635 315.16 
L 572.567635 114 
" clip-path="url(#pc77b1a28e9)" style="fill: none; stroke: #e9edf0; stroke-width: 0.8; stroke-linecap: square"/>
     </g>
     <g id="line2d_10">
      <g>
       <use xlink:href="#mb53128ebd7" x="572.567635" y="315.16" style="stroke: #000000; stroke-width: 0.8"/>
      </g>
     </g>
     <g id="text_5">
      <!-- 0.8 -->
      <g transform="translate(564.616072 329.758437) scale(0.1 -0.1)">
       <defs>
        <path id="DejaVuSans-38" d="M 2034 2216 
Q 1584 2216 1326 1975 
Q 1069 1734 1069 1313 
Q 1069 891 1326 650 
Q 1584 409 2034 409 
Q 2484 409 2743 651 
Q 3003 894 3003 1313 
Q 3003 1734 2745 1975 
Q 2488 2216 2034 2216 
z
M 1403 2484 
Q 997 2584 770 2862 
Q 544 3141 544 3541 
Q 544 4100 942 4425 
Q 1341 4750 2034 4750 
Q 2731 4750 3128 4425 
Q 3525 4100 3525 3541 
Q 3525 3141 3298 2862 
Q 3072 2584 2669 2484 
Q 3125 2378 3379 2068 
Q 3634 1759 3634 1313 
Q 3634 634 3220 271 
Q 2806 -91 2034 -91 
Q 1263 -91 848 271 
Q 434 634 434 1313 
Q 434 1759 690 2068 
Q 947 2378 1403 2484 
z
M 1172 3481 
Q 1172 3119 1398 2916 
Q 1625 2713 2034 2713 
Q 2441 2713 2670 2916 
Q 2900 3119 2900 3481 
Q 2900 3844 2670 4047 
Q 2441 4250 2034 4250 
Q 1625 4250 1398 4047 
Q 1172 3844 1172 3481 
z
" transform="scale(0.015625)"/>
       </defs>
       <use xlink:href="#DejaVuSans-30"/>
       <use xlink:href="#DejaVuSans-2e" transform="translate(63.623047 0)"/>
       <use xlink:href="#DejaVuSans-38" transform="translate(95.410156 0)"/>
      </g>
     </g>
    </g>
    <g id="xtick_6">
     <g id="line2d_11">
      <path d="M 673.391304 315.16 
L 673.391304 114 
" clip-path="url(#pc77b1a28e9)" style="fill: none; stroke: #e9edf0; stroke-width: 0.8; stroke-linecap: square"/>
     </g>
     <g id="line2d_12">
      <g>
       <use xlink:href="#mb53128ebd7" x="673.391304" y="315.16" style="stroke: #000000; stroke-width: 0.8"/>
      </g>
     </g>
     <g id="text_6">
      <!-- 1.0 -->
      <g transform="translate(665.439741 329.758437) scale(0.1 -0.1)">
       <defs>
        <path id="DejaVuSans-31" d="M 794 531 
L 1825 531 
L 1825 4091 
L 703 3866 
L 703 4441 
L 1819 4666 
L 2450 4666 
L 2450 531 
L 3481 531 
L 3481 0 
L 794 0 
L 794 531 
z
" transform="scale(0.015625)"/>
       </defs>
       <use xlink:href="#DejaVuSans-31"/>
       <use xlink:href="#DejaVuSans-2e" transform="translate(63.623047 0)"/>
       <use xlink:href="#DejaVuSans-30" transform="translate(95.410156 0)"/>
      </g>
     </g>
    </g>
    <g id="text_7">
     <!-- Structural agreement with the reference (DockQ; higher is better) -->
     <g transform="translate(256.375881 343.436562) scale(0.1 -0.1)">
      <defs>
       <path id="DejaVuSans-53" d="M 3425 4513 
L 3425 3897 
Q 3066 4069 2747 4153 
Q 2428 4238 2131 4238 
Q 1616 4238 1336 4038 
Q 1056 3838 1056 3469 
Q 1056 3159 1242 3001 
Q 1428 2844 1947 2747 
L 2328 2669 
Q 3034 2534 3370 2195 
Q 3706 1856 3706 1288 
Q 3706 609 3251 259 
Q 2797 -91 1919 -91 
Q 1588 -91 1214 -16 
Q 841 59 441 206 
L 441 856 
Q 825 641 1194 531 
Q 1563 422 1919 422 
Q 2459 422 2753 634 
Q 3047 847 3047 1241 
Q 3047 1584 2836 1778 
Q 2625 1972 2144 2069 
L 1759 2144 
Q 1053 2284 737 2584 
Q 422 2884 422 3419 
Q 422 4038 858 4394 
Q 1294 4750 2059 4750 
Q 2388 4750 2728 4690 
Q 3069 4631 3425 4513 
z
" transform="scale(0.015625)"/>
       <path id="DejaVuSans-74" d="M 1172 4494 
L 1172 3500 
L 2356 3500 
L 2356 3053 
L 1172 3053 
L 1172 1153 
Q 1172 725 1289 603 
Q 1406 481 1766 481 
L 2356 481 
L 2356 0 
L 1766 0 
Q 1100 0 847 248 
Q 594 497 594 1153 
L 594 3053 
L 172 3053 
L 172 3500 
L 594 3500 
L 594 4494 
L 1172 4494 
z
" transform="scale(0.015625)"/>
       <path id="DejaVuSans-72" d="M 2631 2963 
Q 2534 3019 2420 3045 
Q 2306 3072 2169 3072 
Q 1681 3072 1420 2755 
Q 1159 2438 1159 1844 
L 1159 0 
L 581 0 
L 581 3500 
L 1159 3500 
L 1159 2956 
Q 1341 3275 1631 3429 
Q 1922 3584 2338 3584 
Q 2397 3584 2469 3576 
Q 2541 3569 2628 3553 
L 2631 2963 
z
" transform="scale(0.015625)"/>
       <path id="DejaVuSans-75" d="M 544 1381 
L 544 3500 
L 1119 3500 
L 1119 1403 
Q 1119 906 1312 657 
Q 1506 409 1894 409 
Q 2359 409 2629 706 
Q 2900 1003 2900 1516 
L 2900 3500 
L 3475 3500 
L 3475 0 
L 2900 0 
L 2900 538 
Q 2691 219 2414 64 
Q 2138 -91 1772 -91 
Q 1169 -91 856 284 
Q 544 659 544 1381 
z
M 1991 3584 
L 1991 3584 
z
" transform="scale(0.015625)"/>
       <path id="DejaVuSans-63" d="M 3122 3366 
L 3122 2828 
Q 2878 2963 2633 3030 
Q 2388 3097 2138 3097 
Q 1578 3097 1268 2742 
Q 959 2388 959 1747 
Q 959 1106 1268 751 
Q 1578 397 2138 397 
Q 2388 397 2633 464 
Q 2878 531 3122 666 
L 3122 134 
Q 2881 22 2623 -34 
Q 2366 -91 2075 -91 
Q 1284 -91 818 406 
Q 353 903 353 1747 
Q 353 2603 823 3093 
Q 1294 3584 2113 3584 
Q 2378 3584 2631 3529 
Q 2884 3475 3122 3366 
z
" transform="scale(0.015625)"/>
       <path id="DejaVuSans-61" d="M 2194 1759 
Q 1497 1759 1228 1600 
Q 959 1441 959 1056 
Q 959 750 1161 570 
Q 1363 391 1709 391 
Q 2188 391 2477 730 
Q 2766 1069 2766 1631 
L 2766 1759 
L 2194 1759 
z
M 3341 1997 
L 3341 0 
L 2766 0 
L 2766 531 
Q 2569 213 2275 61 
Q 1981 -91 1556 -91 
Q 1019 -91 701 211 
Q 384 513 384 1019 
Q 384 1609 779 1909 
Q 1175 2209 1959 2209 
L 2766 2209 
L 2766 2266 
Q 2766 2663 2505 2880 
Q 2244 3097 1772 3097 
Q 1472 3097 1187 3025 
Q 903 2953 641 2809 
L 641 3341 
Q 956 3463 1253 3523 
Q 1550 3584 1831 3584 
Q 2591 3584 2966 3190 
Q 3341 2797 3341 1997 
z
" transform="scale(0.015625)"/>
       <path id="DejaVuSans-6c" d="M 603 4863 
L 1178 4863 
L 1178 0 
L 603 0 
L 603 4863 
z
" transform="scale(0.015625)"/>
       <path id="DejaVuSans-20" transform="scale(0.015625)"/>
       <path id="DejaVuSans-67" d="M 2906 1791 
Q 2906 2416 2648 2759 
Q 2391 3103 1925 3103 
Q 1463 3103 1205 2759 
Q 947 2416 947 1791 
Q 947 1169 1205 825 
Q 1463 481 1925 481 
Q 2391 481 2648 825 
Q 2906 1169 2906 1791 
z
M 3481 434 
Q 3481 -459 3084 -895 
Q 2688 -1331 1869 -1331 
Q 1566 -1331 1297 -1286 
Q 1028 -1241 775 -1147 
L 775 -588 
Q 1028 -725 1275 -790 
Q 1522 -856 1778 -856 
Q 2344 -856 2625 -561 
Q 2906 -266 2906 331 
L 2906 616 
Q 2728 306 2450 153 
Q 2172 0 1784 0 
Q 1141 0 747 490 
Q 353 981 353 1791 
Q 353 2603 747 3093 
Q 1141 3584 1784 3584 
Q 2172 3584 2450 3431 
Q 2728 3278 2906 2969 
L 2906 3500 
L 3481 3500 
L 3481 434 
z
" transform="scale(0.015625)"/>
       <path id="DejaVuSans-65" d="M 3597 1894 
L 3597 1613 
L 953 1613 
Q 991 1019 1311 708 
Q 1631 397 2203 397 
Q 2534 397 2845 478 
Q 3156 559 3463 722 
L 3463 178 
Q 3153 47 2828 -22 
Q 2503 -91 2169 -91 
Q 1331 -91 842 396 
Q 353 884 353 1716 
Q 353 2575 817 3079 
Q 1281 3584 2069 3584 
Q 2775 3584 3186 3129 
Q 3597 2675 3597 1894 
z
M 3022 2063 
Q 3016 2534 2758 2815 
Q 2500 3097 2075 3097 
Q 1594 3097 1305 2825 
Q 1016 2553 972 2059 
L 3022 2063 
z
" transform="scale(0.015625)"/>
       <path id="DejaVuSans-6d" d="M 3328 2828 
Q 3544 3216 3844 3400 
Q 4144 3584 4550 3584 
Q 5097 3584 5394 3201 
Q 5691 2819 5691 2113 
L 5691 0 
L 5113 0 
L 5113 2094 
Q 5113 2597 4934 2840 
Q 4756 3084 4391 3084 
Q 3944 3084 3684 2787 
Q 3425 2491 3425 1978 
L 3425 0 
L 2847 0 
L 2847 2094 
Q 2847 2600 2669 2842 
Q 2491 3084 2119 3084 
Q 1678 3084 1418 2786 
Q 1159 2488 1159 1978 
L 1159 0 
L 581 0 
L 581 3500 
L 1159 3500 
L 1159 2956 
Q 1356 3278 1631 3431 
Q 1906 3584 2284 3584 
Q 2666 3584 2933 3390 
Q 3200 3197 3328 2828 
z
" transform="scale(0.015625)"/>
       <path id="DejaVuSans-6e" d="M 3513 2113 
L 3513 0 
L 2938 0 
L 2938 2094 
Q 2938 2591 2744 2837 
Q 2550 3084 2163 3084 
Q 1697 3084 1428 2787 
Q 1159 2491 1159 1978 
L 1159 0 
L 581 0 
L 581 3500 
L 1159 3500 
L 1159 2956 
Q 1366 3272 1645 3428 
Q 1925 3584 2291 3584 
Q 2894 3584 3203 3211 
Q 3513 2838 3513 2113 
z
" transform="scale(0.015625)"/>
       <path id="DejaVuSans-77" d="M 269 3500 
L 844 3500 
L 1563 769 
L 2278 3500 
L 2956 3500 
L 3675 769 
L 4391 3500 
L 4966 3500 
L 4050 0 
L 3372 0 
L 2619 2869 
L 1863 0 
L 1184 0 
L 269 3500 
z
" transform="scale(0.015625)"/>
       <path id="DejaVuSans-69" d="M 603 3500 
L 1178 3500 
L 1178 0 
L 603 0 
L 603 3500 
z
M 603 4863 
L 1178 4863 
L 1178 4134 
L 603 4134 
L 603 4863 
z
" transform="scale(0.015625)"/>
       <path id="DejaVuSans-68" d="M 3513 2113 
L 3513 0 
L 2938 0 
L 2938 2094 
Q 2938 2591 2744 2837 
Q 2550 3084 2163 3084 
Q 1697 3084 1428 2787 
Q 1159 2491 1159 1978 
L 1159 0 
L 581 0 
L 581 4863 
L 1159 4863 
L 1159 2956 
Q 1366 3272 1645 3428 
Q 1925 3584 2291 3584 
Q 2894 3584 3203 3211 
Q 3513 2838 3513 2113 
z
" transform="scale(0.015625)"/>
       <path id="DejaVuSans-66" d="M 2375 4863 
L 2375 4384 
L 1825 4384 
Q 1516 4384 1395 4259 
Q 1275 4134 1275 3809 
L 1275 3500 
L 2222 3500 
L 2222 3053 
L 1275 3053 
L 1275 0 
L 697 0 
L 697 3053 
L 147 3053 
L 147 3500 
L 697 3500 
L 697 3744 
Q 697 4328 969 4595 
Q 1241 4863 1831 4863 
L 2375 4863 
z
" transform="scale(0.015625)"/>
       <path id="DejaVuSans-28" d="M 1984 4856 
Q 1566 4138 1362 3434 
Q 1159 2731 1159 2009 
Q 1159 1288 1364 580 
Q 1569 -128 1984 -844 
L 1484 -844 
Q 1016 -109 783 600 
Q 550 1309 550 2009 
Q 550 2706 781 3412 
Q 1013 4119 1484 4856 
L 1984 4856 
z
" transform="scale(0.015625)"/>
       <path id="DejaVuSans-44" d="M 1259 4147 
L 1259 519 
L 2022 519 
Q 2988 519 3436 956 
Q 3884 1394 3884 2338 
Q 3884 3275 3436 3711 
Q 2988 4147 2022 4147 
L 1259 4147 
z
M 628 4666 
L 1925 4666 
Q 3281 4666 3915 4102 
Q 4550 3538 4550 2338 
Q 4550 1131 3912 565 
Q 3275 0 1925 0 
L 628 0 
L 628 4666 
z
" transform="scale(0.015625)"/>
       <path id="DejaVuSans-6f" d="M 1959 3097 
Q 1497 3097 1228 2736 
Q 959 2375 959 1747 
Q 959 1119 1226 758 
Q 1494 397 1959 397 
Q 2419 397 2687 759 
Q 2956 1122 2956 1747 
Q 2956 2369 2687 2733 
Q 2419 3097 1959 3097 
z
M 1959 3584 
Q 2709 3584 3137 3096 
Q 3566 2609 3566 1747 
Q 3566 888 3137 398 
Q 2709 -91 1959 -91 
Q 1206 -91 779 398 
Q 353 888 353 1747 
Q 353 2609 779 3096 
Q 1206 3584 1959 3584 
z
" transform="scale(0.015625)"/>
       <path id="DejaVuSans-6b" d="M 581 4863 
L 1159 4863 
L 1159 1991 
L 2875 3500 
L 3609 3500 
L 1753 1863 
L 3688 0 
L 2938 0 
L 1159 1709 
L 1159 0 
L 581 0 
L 581 4863 
z
" transform="scale(0.015625)"/>
       <path id="DejaVuSans-51" d="M 2522 4238 
Q 1834 4238 1429 3725 
Q 1025 3213 1025 2328 
Q 1025 1447 1429 934 
Q 1834 422 2522 422 
Q 3209 422 3611 934 
Q 4013 1447 4013 2328 
Q 4013 3213 3611 3725 
Q 3209 4238 2522 4238 
z
M 3406 84 
L 4238 -825 
L 3475 -825 
L 2784 -78 
Q 2681 -84 2626 -87 
Q 2572 -91 2522 -91 
Q 1538 -91 948 567 
Q 359 1225 359 2328 
Q 359 3434 948 4092 
Q 1538 4750 2522 4750 
Q 3503 4750 4090 4092 
Q 4678 3434 4678 2328 
Q 4678 1516 4351 937 
Q 4025 359 3406 84 
z
" transform="scale(0.015625)"/>
       <path id="DejaVuSans-3b" d="M 750 3309 
L 1409 3309 
L 1409 2516 
L 750 2516 
L 750 3309 
z
M 750 794 
L 1409 794 
L 1409 256 
L 897 -744 
L 494 -744 
L 750 256 
L 750 794 
z
" transform="scale(0.015625)"/>
       <path id="DejaVuSans-73" d="M 2834 3397 
L 2834 2853 
Q 2591 2978 2328 3040 
Q 2066 3103 1784 3103 
Q 1356 3103 1142 2972 
Q 928 2841 928 2578 
Q 928 2378 1081 2264 
Q 1234 2150 1697 2047 
L 1894 2003 
Q 2506 1872 2764 1633 
Q 3022 1394 3022 966 
Q 3022 478 2636 193 
Q 2250 -91 1575 -91 
Q 1294 -91 989 -36 
Q 684 19 347 128 
L 347 722 
Q 666 556 975 473 
Q 1284 391 1588 391 
Q 1994 391 2212 530 
Q 2431 669 2431 922 
Q 2431 1156 2273 1281 
Q 2116 1406 1581 1522 
L 1381 1569 
Q 847 1681 609 1914 
Q 372 2147 372 2553 
Q 372 3047 722 3315 
Q 1072 3584 1716 3584 
Q 2034 3584 2315 3537 
Q 2597 3491 2834 3397 
z
" transform="scale(0.015625)"/>
       <path id="DejaVuSans-62" d="M 3116 1747 
Q 3116 2381 2855 2742 
Q 2594 3103 2138 3103 
Q 1681 3103 1420 2742 
Q 1159 2381 1159 1747 
Q 1159 1113 1420 752 
Q 1681 391 2138 391 
Q 2594 391 2855 752 
Q 3116 1113 3116 1747 
z
M 1159 2969 
Q 1341 3281 1617 3432 
Q 1894 3584 2278 3584 
Q 2916 3584 3314 3078 
Q 3713 2572 3713 1747 
Q 3713 922 3314 415 
Q 2916 -91 2278 -91 
Q 1894 -91 1617 61 
Q 1341 213 1159 525 
L 1159 0 
L 581 0 
L 581 4863 
L 1159 4863 
L 1159 2969 
z
" transform="scale(0.015625)"/>
       <path id="DejaVuSans-29" d="M 513 4856 
L 1013 4856 
Q 1481 4119 1714 3412 
Q 1947 2706 1947 2009 
Q 1947 1309 1714 600 
Q 1481 -109 1013 -844 
L 513 -844 
Q 928 -128 1133 580 
Q 1338 1288 1338 2009 
Q 1338 2731 1133 3434 
Q 928 4138 513 4856 
z
" transform="scale(0.015625)"/>
      </defs>
      <use xlink:href="#DejaVuSans-53"/>
      <use xlink:href="#DejaVuSans-74" transform="translate(63.476562 0)"/>
      <use xlink:href="#DejaVuSans-72" transform="translate(102.685547 0)"/>
      <use xlink:href="#DejaVuSans-75" transform="translate(143.798828 0)"/>
      <use xlink:href="#DejaVuSans-63" transform="translate(207.177734 0)"/>
      <use xlink:href="#DejaVuSans-74" transform="translate(262.158203 0)"/>
      <use xlink:href="#DejaVuSans-75" transform="translate(301.367188 0)"/>
      <use xlink:href="#DejaVuSans-72" transform="translate(364.746094 0)"/>
      <use xlink:href="#DejaVuSans-61" transform="translate(405.859375 0)"/>
      <use xlink:href="#DejaVuSans-6c" transform="translate(467.138672 0)"/>
      <use xlink:href="#DejaVuSans-20" transform="translate(494.921875 0)"/>
      <use xlink:href="#DejaVuSans-61" transform="translate(526.708984 0)"/>
      <use xlink:href="#DejaVuSans-67" transform="translate(587.988281 0)"/>
      <use xlink:href="#DejaVuSans-72" transform="translate(651.464844 0)"/>
      <use xlink:href="#DejaVuSans-65" transform="translate(690.328125 0)"/>
      <use xlink:href="#DejaVuSans-65" transform="translate(751.851562 0)"/>
      <use xlink:href="#DejaVuSans-6d" transform="translate(813.375 0)"/>
      <use xlink:href="#DejaVuSans-65" transform="translate(910.787109 0)"/>
      <use xlink:href="#DejaVuSans-6e" transform="translate(972.310547 0)"/>
      <use xlink:href="#DejaVuSans-74" transform="translate(1035.689453 0)"/>
      <use xlink:href="#DejaVuSans-20" transform="translate(1074.898438 0)"/>
      <use xlink:href="#DejaVuSans-77" transform="translate(1106.685547 0)"/>
      <use xlink:href="#DejaVuSans-69" transform="translate(1188.472656 0)"/>
      <use xlink:href="#DejaVuSans-74" transform="translate(1216.255859 0)"/>
      <use xlink:href="#DejaVuSans-68" transform="translate(1255.464844 0)"/>
      <use xlink:href="#DejaVuSans-20" transform="translate(1318.84375 0)"/>
      <use xlink:href="#DejaVuSans-74" transform="translate(1350.630859 0)"/>
      <use xlink:href="#DejaVuSans-68" transform="translate(1389.839844 0)"/>
      <use xlink:href="#DejaVuSans-65" transform="translate(1453.21875 0)"/>
      <use xlink:href="#DejaVuSans-20" transform="translate(1514.742188 0)"/>
      <use xlink:href="#DejaVuSans-72" transform="translate(1546.529297 0)"/>
      <use xlink:href="#DejaVuSans-65" transform="translate(1585.392578 0)"/>
      <use xlink:href="#DejaVuSans-66" transform="translate(1646.916016 0)"/>
      <use xlink:href="#DejaVuSans-65" transform="translate(1682.121094 0)"/>
      <use xlink:href="#DejaVuSans-72" transform="translate(1743.644531 0)"/>
      <use xlink:href="#DejaVuSans-65" transform="translate(1782.507812 0)"/>
      <use xlink:href="#DejaVuSans-6e" transform="translate(1844.03125 0)"/>
      <use xlink:href="#DejaVuSans-63" transform="translate(1907.410156 0)"/>
      <use xlink:href="#DejaVuSans-65" transform="translate(1962.390625 0)"/>
      <use xlink:href="#DejaVuSans-20" transform="translate(2023.914062 0)"/>
      <use xlink:href="#DejaVuSans-28" transform="translate(2055.701172 0)"/>
      <use xlink:href="#DejaVuSans-44" transform="translate(2094.714844 0)"/>
      <use xlink:href="#DejaVuSans-6f" transform="translate(2171.716797 0)"/>
      <use xlink:href="#DejaVuSans-63" transform="translate(2232.898438 0)"/>
      <use xlink:href="#DejaVuSans-6b" transform="translate(2287.878906 0)"/>
      <use xlink:href="#DejaVuSans-51" transform="translate(2345.789062 0)"/>
      <use xlink:href="#DejaVuSans-3b" transform="translate(2424.5 0)"/>
      <use xlink:href="#DejaVuSans-20" transform="translate(2458.191406 0)"/>
      <use xlink:href="#DejaVuSans-68" transform="translate(2489.978516 0)"/>
      <use xlink:href="#DejaVuSans-69" transform="translate(2553.357422 0)"/>
      <use xlink:href="#DejaVuSans-67" transform="translate(2581.140625 0)"/>
      <use xlink:href="#DejaVuSans-68" transform="translate(2644.617188 0)"/>
      <use xlink:href="#DejaVuSans-65" transform="translate(2707.996094 0)"/>
      <use xlink:href="#DejaVuSans-72" transform="translate(2769.519531 0)"/>
      <use xlink:href="#DejaVuSans-20" transform="translate(2810.632812 0)"/>
      <use xlink:href="#DejaVuSans-69" transform="translate(2842.419922 0)"/>
      <use xlink:href="#DejaVuSans-73" transform="translate(2870.203125 0)"/>
      <use xlink:href="#DejaVuSans-20" transform="translate(2922.302734 0)"/>
      <use xlink:href="#DejaVuSans-62" transform="translate(2954.089844 0)"/>
      <use xlink:href="#DejaVuSans-65" transform="translate(3017.566406 0)"/>
      <use xlink:href="#DejaVuSans-74" transform="translate(3079.089844 0)"/>
      <use xlink:href="#DejaVuSans-74" transform="translate(3118.298828 0)"/>
      <use xlink:href="#DejaVuSans-65" transform="translate(3157.507812 0)"/>
      <use xlink:href="#DejaVuSans-72" transform="translate(3219.03125 0)"/>
      <use xlink:href="#DejaVuSans-29" transform="translate(3260.144531 0)"/>
     </g>
    </g>
   </g>
   <g id="matplotlib.axis_2">
    <g id="ytick_1">
     <g id="line2d_13">
      <defs>
       <path id="m61384fa2f5" d="M 0 0 
L -3.5 0 
" style="stroke: #000000; stroke-width: 0.8"/>
      </defs>
      <g>
       <use xlink:href="#m61384fa2f5" x="156.67" y="151.7175" style="stroke: #000000; stroke-width: 0.8"/>
      </g>
     </g>
     <g id="text_8">
      <!-- ADGRV1 / RE02 -->
      <g transform="translate(72.062188 150.677656) scale(0.1 -0.1)">
       <defs>
        <path id="DejaVuSans-41" d="M 2188 4044 
L 1331 1722 
L 3047 1722 
L 2188 4044 
z
M 1831 4666 
L 2547 4666 
L 4325 0 
L 3669 0 
L 3244 1197 
L 1141 1197 
L 716 0 
L 50 0 
L 1831 4666 
z
" transform="scale(0.015625)"/>
        <path id="DejaVuSans-47" d="M 3809 666 
L 3809 1919 
L 2778 1919 
L 2778 2438 
L 4434 2438 
L 4434 434 
Q 4069 175 3628 42 
Q 3188 -91 2688 -91 
Q 1594 -91 976 548 
Q 359 1188 359 2328 
Q 359 3472 976 4111 
Q 1594 4750 2688 4750 
Q 3144 4750 3555 4637 
Q 3966 4525 4313 4306 
L 4313 3634 
Q 3963 3931 3569 4081 
Q 3175 4231 2741 4231 
Q 1884 4231 1454 3753 
Q 1025 3275 1025 2328 
Q 1025 1384 1454 906 
Q 1884 428 2741 428 
Q 3075 428 3337 486 
Q 3600 544 3809 666 
z
" transform="scale(0.015625)"/>
        <path id="DejaVuSans-52" d="M 2841 2188 
Q 3044 2119 3236 1894 
Q 3428 1669 3622 1275 
L 4263 0 
L 3584 0 
L 2988 1197 
Q 2756 1666 2539 1819 
Q 2322 1972 1947 1972 
L 1259 1972 
L 1259 0 
L 628 0 
L 628 4666 
L 2053 4666 
Q 2853 4666 3247 4331 
Q 3641 3997 3641 3322 
Q 3641 2881 3436 2590 
Q 3231 2300 2841 2188 
z
M 1259 4147 
L 1259 2491 
L 2053 2491 
Q 2509 2491 2742 2702 
Q 2975 2913 2975 3322 
Q 2975 3731 2742 3939 
Q 2509 4147 2053 4147 
L 1259 4147 
z
" transform="scale(0.015625)"/>
        <path id="DejaVuSans-56" d="M 1831 0 
L 50 4666 
L 709 4666 
L 2188 738 
L 3669 4666 
L 4325 4666 
L 2547 0 
L 1831 0 
z
" transform="scale(0.015625)"/>
        <path id="DejaVuSans-2f" d="M 1625 4666 
L 2156 4666 
L 531 -594 
L 0 -594 
L 1625 4666 
z
" transform="scale(0.015625)"/>
        <path id="DejaVuSans-45" d="M 628 4666 
L 3578 4666 
L 3578 4134 
L 1259 4134 
L 1259 2753 
L 3481 2753 
L 3481 2222 
L 1259 2222 
L 1259 531 
L 3634 531 
L 3634 0 
L 628 0 
L 628 4666 
z
" transform="scale(0.015625)"/>
       </defs>
       <use xlink:href="#DejaVuSans-41"/>
       <use xlink:href="#DejaVuSans-44" transform="translate(68.408203 0)"/>
       <use xlink:href="#DejaVuSans-47" transform="translate(145.410156 0)"/>
       <use xlink:href="#DejaVuSans-52" transform="translate(222.900391 0)"/>
       <use xlink:href="#DejaVuSans-56" transform="translate(286.882812 0)"/>
       <use xlink:href="#DejaVuSans-31" transform="translate(355.291016 0)"/>
       <use xlink:href="#DejaVuSans-20" transform="translate(418.914062 0)"/>
       <use xlink:href="#DejaVuSans-2f" transform="translate(450.701172 0)"/>
       <use xlink:href="#DejaVuSans-20" transform="translate(484.392578 0)"/>
       <use xlink:href="#DejaVuSans-52" transform="translate(516.179688 0)"/>
       <use xlink:href="#DejaVuSans-45" transform="translate(585.662109 0)"/>
       <use xlink:href="#DejaVuSans-30" transform="translate(648.845703 0)"/>
       <use xlink:href="#DejaVuSans-32" transform="translate(712.46875 0)"/>
      </g>
      <!-- Baseline -->
      <g transform="translate(107.271563 161.875469) scale(0.1 -0.1)">
       <defs>
        <path id="DejaVuSans-42" d="M 1259 2228 
L 1259 519 
L 2272 519 
Q 2781 519 3026 730 
Q 3272 941 3272 1375 
Q 3272 1813 3026 2020 
Q 2781 2228 2272 2228 
L 1259 2228 
z
M 1259 4147 
L 1259 2741 
L 2194 2741 
Q 2656 2741 2882 2914 
Q 3109 3088 3109 3444 
Q 3109 3797 2882 3972 
Q 2656 4147 2194 4147 
L 1259 4147 
z
M 628 4666 
L 2241 4666 
Q 2963 4666 3353 4366 
Q 3744 4066 3744 3513 
Q 3744 3084 3544 2831 
Q 3344 2578 2956 2516 
Q 3422 2416 3680 2098 
Q 3938 1781 3938 1306 
Q 3938 681 3513 340 
Q 3088 0 2303 0 
L 628 0 
L 628 4666 
z
" transform="scale(0.015625)"/>
       </defs>
       <use xlink:href="#DejaVuSans-42"/>
       <use xlink:href="#DejaVuSans-61" transform="translate(68.603516 0)"/>
       <use xlink:href="#DejaVuSans-73" transform="translate(129.882812 0)"/>
       <use xlink:href="#DejaVuSans-65" transform="translate(181.982422 0)"/>
       <use xlink:href="#DejaVuSans-6c" transform="translate(243.505859 0)"/>
       <use xlink:href="#DejaVuSans-69" transform="translate(271.289062 0)"/>
       <use xlink:href="#DejaVuSans-6e" transform="translate(299.072266 0)"/>
       <use xlink:href="#DejaVuSans-65" transform="translate(362.451172 0)"/>
      </g>
     </g>
    </g>
    <g id="ytick_2">
     <g id="line2d_14">
      <g>
       <use xlink:href="#m61384fa2f5" x="156.67" y="214.58" style="stroke: #000000; stroke-width: 0.8"/>
      </g>
     </g>
     <g id="text_9">
      <!-- GPR158 / Nb20 dimer -->
      <g transform="translate(41.266875 213.540156) scale(0.1 -0.1)">
       <defs>
        <path id="DejaVuSans-50" d="M 1259 4147 
L 1259 2394 
L 2053 2394 
Q 2494 2394 2734 2622 
Q 2975 2850 2975 3272 
Q 2975 3691 2734 3919 
Q 2494 4147 2053 4147 
L 1259 4147 
z
M 628 4666 
L 2053 4666 
Q 2838 4666 3239 4311 
Q 3641 3956 3641 3272 
Q 3641 2581 3239 2228 
Q 2838 1875 2053 1875 
L 1259 1875 
L 1259 0 
L 628 0 
L 628 4666 
z
" transform="scale(0.015625)"/>
        <path id="DejaVuSans-35" d="M 691 4666 
L 3169 4666 
L 3169 4134 
L 1269 4134 
L 1269 2991 
Q 1406 3038 1543 3061 
Q 1681 3084 1819 3084 
Q 2600 3084 3056 2656 
Q 3513 2228 3513 1497 
Q 3513 744 3044 326 
Q 2575 -91 1722 -91 
Q 1428 -91 1123 -41 
Q 819 9 494 109 
L 494 744 
Q 775 591 1075 516 
Q 1375 441 1709 441 
Q 2250 441 2565 725 
Q 2881 1009 2881 1497 
Q 2881 1984 2565 2268 
Q 2250 2553 1709 2553 
Q 1456 2553 1204 2497 
Q 953 2441 691 2322 
L 691 4666 
z
" transform="scale(0.015625)"/>
        <path id="DejaVuSans-4e" d="M 628 4666 
L 1478 4666 
L 3547 763 
L 3547 4666 
L 4159 4666 
L 4159 0 
L 3309 0 
L 1241 3903 
L 1241 0 
L 628 0 
L 628 4666 
z
" transform="scale(0.015625)"/>
        <path id="DejaVuSans-64" d="M 2906 2969 
L 2906 4863 
L 3481 4863 
L 3481 0 
L 2906 0 
L 2906 525 
Q 2725 213 2448 61 
Q 2172 -91 1784 -91 
Q 1150 -91 751 415 
Q 353 922 353 1747 
Q 353 2572 751 3078 
Q 1150 3584 1784 3584 
Q 2172 3584 2448 3432 
Q 2725 3281 2906 2969 
z
M 947 1747 
Q 947 1113 1208 752 
Q 1469 391 1925 391 
Q 2381 391 2643 752 
Q 2906 1113 2906 1747 
Q 2906 2381 2643 2742 
Q 2381 3103 1925 3103 
Q 1469 3103 1208 2742 
Q 947 2381 947 1747 
z
" transform="scale(0.015625)"/>
       </defs>
       <use xlink:href="#DejaVuSans-47"/>
       <use xlink:href="#DejaVuSans-50" transform="translate(77.490234 0)"/>
       <use xlink:href="#DejaVuSans-52" transform="translate(137.792969 0)"/>
       <use xlink:href="#DejaVuSans-31" transform="translate(207.275391 0)"/>
       <use xlink:href="#DejaVuSans-35" transform="translate(270.898438 0)"/>
       <use xlink:href="#DejaVuSans-38" transform="translate(334.521484 0)"/>
       <use xlink:href="#DejaVuSans-20" transform="translate(398.144531 0)"/>
       <use xlink:href="#DejaVuSans-2f" transform="translate(429.931641 0)"/>
       <use xlink:href="#DejaVuSans-20" transform="translate(463.623047 0)"/>
       <use xlink:href="#DejaVuSans-4e" transform="translate(495.410156 0)"/>
       <use xlink:href="#DejaVuSans-62" transform="translate(570.214844 0)"/>
       <use xlink:href="#DejaVuSans-32" transform="translate(633.691406 0)"/>
       <use xlink:href="#DejaVuSans-30" transform="translate(697.314453 0)"/>
       <use xlink:href="#DejaVuSans-20" transform="translate(760.9375 0)"/>
       <use xlink:href="#DejaVuSans-64" transform="translate(792.724609 0)"/>
       <use xlink:href="#DejaVuSans-69" transform="translate(856.201172 0)"/>
       <use xlink:href="#DejaVuSans-6d" transform="translate(883.984375 0)"/>
       <use xlink:href="#DejaVuSans-65" transform="translate(981.396484 0)"/>
       <use xlink:href="#DejaVuSans-72" transform="translate(1042.919922 0)"/>
      </g>
      <!-- Baseline -->
      <g transform="translate(107.271563 224.737969) scale(0.1 -0.1)">
       <use xlink:href="#DejaVuSans-42"/>
       <use xlink:href="#DejaVuSans-61" transform="translate(68.603516 0)"/>
       <use xlink:href="#DejaVuSans-73" transform="translate(129.882812 0)"/>
       <use xlink:href="#DejaVuSans-65" transform="translate(181.982422 0)"/>
       <use xlink:href="#DejaVuSans-6c" transform="translate(243.505859 0)"/>
       <use xlink:href="#DejaVuSans-69" transform="translate(271.289062 0)"/>
       <use xlink:href="#DejaVuSans-6e" transform="translate(299.072266 0)"/>
       <use xlink:href="#DejaVuSans-65" transform="translate(362.451172 0)"/>
      </g>
     </g>
    </g>
    <g id="ytick_3">
     <g id="line2d_15">
      <g>
       <use xlink:href="#m61384fa2f5" x="156.67" y="277.4425" style="stroke: #000000; stroke-width: 0.8"/>
      </g>
     </g>
     <g id="text_10">
      <!-- MC4R / pN162 full assembly -->
      <g transform="translate(8.849688 276.402656) scale(0.1 -0.1)">
       <defs>
        <path id="DejaVuSans-4d" d="M 628 4666 
L 1569 4666 
L 2759 1491 
L 3956 4666 
L 4897 4666 
L 4897 0 
L 4281 0 
L 4281 4097 
L 3078 897 
L 2444 897 
L 1241 4097 
L 1241 0 
L 628 0 
L 628 4666 
z
" transform="scale(0.015625)"/>
        <path id="DejaVuSans-43" d="M 4122 4306 
L 4122 3641 
Q 3803 3938 3442 4084 
Q 3081 4231 2675 4231 
Q 1875 4231 1450 3742 
Q 1025 3253 1025 2328 
Q 1025 1406 1450 917 
Q 1875 428 2675 428 
Q 3081 428 3442 575 
Q 3803 722 4122 1019 
L 4122 359 
Q 3791 134 3420 21 
Q 3050 -91 2638 -91 
Q 1578 -91 968 557 
Q 359 1206 359 2328 
Q 359 3453 968 4101 
Q 1578 4750 2638 4750 
Q 3056 4750 3426 4639 
Q 3797 4528 4122 4306 
z
" transform="scale(0.015625)"/>
        <path id="DejaVuSans-70" d="M 1159 525 
L 1159 -1331 
L 581 -1331 
L 581 3500 
L 1159 3500 
L 1159 2969 
Q 1341 3281 1617 3432 
Q 1894 3584 2278 3584 
Q 2916 3584 3314 3078 
Q 3713 2572 3713 1747 
Q 3713 922 3314 415 
Q 2916 -91 2278 -91 
Q 1894 -91 1617 61 
Q 1341 213 1159 525 
z
M 3116 1747 
Q 3116 2381 2855 2742 
Q 2594 3103 2138 3103 
Q 1681 3103 1420 2742 
Q 1159 2381 1159 1747 
Q 1159 1113 1420 752 
Q 1681 391 2138 391 
Q 2594 391 2855 752 
Q 3116 1113 3116 1747 
z
" transform="scale(0.015625)"/>
        <path id="DejaVuSans-79" d="M 2059 -325 
Q 1816 -950 1584 -1140 
Q 1353 -1331 966 -1331 
L 506 -1331 
L 506 -850 
L 844 -850 
Q 1081 -850 1212 -737 
Q 1344 -625 1503 -206 
L 1606 56 
L 191 3500 
L 800 3500 
L 1894 763 
L 2988 3500 
L 3597 3500 
L 2059 -325 
z
" transform="scale(0.015625)"/>
       </defs>
       <use xlink:href="#DejaVuSans-4d"/>
       <use xlink:href="#DejaVuSans-43" transform="translate(86.279297 0)"/>
       <use xlink:href="#DejaVuSans-34" transform="translate(156.103516 0)"/>
       <use xlink:href="#DejaVuSans-52" transform="translate(219.726562 0)"/>
       <use xlink:href="#DejaVuSans-20" transform="translate(289.208984 0)"/>
       <use xlink:href="#DejaVuSans-2f" transform="translate(320.996094 0)"/>
       <use xlink:href="#DejaVuSans-20" transform="translate(354.6875 0)"/>
       <use xlink:href="#DejaVuSans-70" transform="translate(386.474609 0)"/>
       <use xlink:href="#DejaVuSans-4e" transform="translate(449.951172 0)"/>
       <use xlink:href="#DejaVuSans-31" transform="translate(524.755859 0)"/>
       <use xlink:href="#DejaVuSans-36" transform="translate(588.378906 0)"/>
       <use xlink:href="#DejaVuSans-32" transform="translate(652.001953 0)"/>
       <use xlink:href="#DejaVuSans-20" transform="translate(715.625 0)"/>
       <use xlink:href="#DejaVuSans-66" transform="translate(747.412109 0)"/>
       <use xlink:href="#DejaVuSans-75" transform="translate(782.617188 0)"/>
       <use xlink:href="#DejaVuSans-6c" transform="translate(845.996094 0)"/>
       <use xlink:href="#DejaVuSans-6c" transform="translate(873.779297 0)"/>
       <use xlink:href="#DejaVuSans-20" transform="translate(901.5625 0)"/>
       <use xlink:href="#DejaVuSans-61" transform="translate(933.349609 0)"/>
       <use xlink:href="#DejaVuSans-73" transform="translate(994.628906 0)"/>
       <use xlink:href="#DejaVuSans-73" transform="translate(1046.728516 0)"/>
       <use xlink:href="#DejaVuSans-65" transform="translate(1098.828125 0)"/>
       <use xlink:href="#DejaVuSans-6d" transform="translate(1160.351562 0)"/>
       <use xlink:href="#DejaVuSans-62" transform="translate(1257.763672 0)"/>
       <use xlink:href="#DejaVuSans-6c" transform="translate(1321.240234 0)"/>
       <use xlink:href="#DejaVuSans-79" transform="translate(1349.023438 0)"/>
      </g>
      <!-- Baseline -->
      <g transform="translate(107.271563 287.600469) scale(0.1 -0.1)">
       <use xlink:href="#DejaVuSans-42"/>
       <use xlink:href="#DejaVuSans-61" transform="translate(68.603516 0)"/>
       <use xlink:href="#DejaVuSans-73" transform="translate(129.882812 0)"/>
       <use xlink:href="#DejaVuSans-65" transform="translate(181.982422 0)"/>
       <use xlink:href="#DejaVuSans-6c" transform="translate(243.505859 0)"/>
       <use xlink:href="#DejaVuSans-69" transform="translate(271.289062 0)"/>
       <use xlink:href="#DejaVuSans-6e" transform="translate(299.072266 0)"/>
       <use xlink:href="#DejaVuSans-65" transform="translate(362.451172 0)"/>
      </g>
     </g>
    </g>
   </g>
   <g id="line2d_16">
    <path d="M 285.220178 315.16 
L 285.220178 114 
" clip-path="url(#pc77b1a28e9)" style="fill: none; stroke-dasharray: 1,1.65; stroke-dashoffset: 0; stroke: #9a8b73"/>
   </g>
   <g id="line2d_17">
    <path d="M 176.999738 151.7175 
L 234.024426 151.7175 
" clip-path="url(#pc77b1a28e9)" style="fill: none; stroke: #4d6172; stroke-opacity: 0.5; stroke-width: 1.1; stroke-linecap: square"/>
   </g>
   <g id="line2d_18">
    <path d="M 326.260065 214.58 
L 392.035038 214.58 
" clip-path="url(#pc77b1a28e9)" style="fill: none; stroke: #4d6172; stroke-opacity: 0.5; stroke-width: 1.1; stroke-linecap: square"/>
   </g>
   <g id="line2d_19">
    <path d="M 172.428912 277.4425 
L 173.430212 277.4425 
" clip-path="url(#pc77b1a28e9)" style="fill: none; stroke: #4d6172; stroke-opacity: 0.5; stroke-width: 1.1; stroke-linecap: square"/>
   </g>
   <g id="patch_5">
    <path d="M 156.67 315.16 
L 156.67 114 
" style="fill: none; stroke: #000000; stroke-width: 0.8; stroke-linejoin: miter; stroke-linecap: square"/>
   </g>
   <g id="patch_6">
    <path d="M 156.67 315.16 
L 685.994262 315.16 
" style="fill: none; stroke: #000000; stroke-width: 0.8; stroke-linejoin: miter; stroke-linecap: square"/>
   </g>
   <g id="PathCollection_1">
    <defs>
     <path id="m2e68d7679f" d="M 0 6.123724 
L 0 -6.123724 
" style="stroke: #4d6172; stroke-width: 1.5"/>
    </defs>
    <g clip-path="url(#pc77b1a28e9)">
     <use xlink:href="#m2e68d7679f" x="234.024426" y="151.7175" style="fill: #4d6172; stroke: #4d6172; stroke-width: 1.5"/>
    </g>
   </g>
   <g id="PathCollection_2">
    <g clip-path="url(#pc77b1a28e9)">
     <use xlink:href="#m2e68d7679f" x="392.035038" y="214.58" style="fill: #4d6172; stroke: #4d6172; stroke-width: 1.5"/>
    </g>
   </g>
   <g id="PathCollection_3">
    <g clip-path="url(#pc77b1a28e9)">
     <use xlink:href="#m2e68d7679f" x="173.430212" y="277.4425" style="fill: #4d6172; stroke: #4d6172; stroke-width: 1.5"/>
    </g>
   </g>
   <g id="text_11">
    <!-- First choice and best available candidate -->
    <g transform="translate(156.67 108) scale(0.11 -0.11)">
     <defs>
      <path id="DejaVuSans-46" d="M 628 4666 
L 3309 4666 
L 3309 4134 
L 1259 4134 
L 1259 2759 
L 3109 2759 
L 3109 2228 
L 1259 2228 
L 1259 0 
L 628 0 
L 628 4666 
z
" transform="scale(0.015625)"/>
      <path id="DejaVuSans-76" d="M 191 3500 
L 800 3500 
L 1894 563 
L 2988 3500 
L 3597 3500 
L 2284 0 
L 1503 0 
L 191 3500 
z
" transform="scale(0.015625)"/>
     </defs>
     <use xlink:href="#DejaVuSans-46"/>
     <use xlink:href="#DejaVuSans-69" transform="translate(50.269531 0)"/>
     <use xlink:href="#DejaVuSans-72" transform="translate(78.052734 0)"/>
     <use xlink:href="#DejaVuSans-73" transform="translate(119.166016 0)"/>
     <use xlink:href="#DejaVuSans-74" transform="translate(171.265625 0)"/>
     <use xlink:href="#DejaVuSans-20" transform="translate(210.474609 0)"/>
     <use xlink:href="#DejaVuSans-63" transform="translate(242.261719 0)"/>
     <use xlink:href="#DejaVuSans-68" transform="translate(297.242188 0)"/>
     <use xlink:href="#DejaVuSans-6f" transform="translate(360.621094 0)"/>
     <use xlink:href="#DejaVuSans-69" transform="translate(421.802734 0)"/>
     <use xlink:href="#DejaVuSans-63" transform="translate(449.585938 0)"/>
     <use xlink:href="#DejaVuSans-65" transform="translate(504.566406 0)"/>
     <use xlink:href="#DejaVuSans-20" transform="translate(566.089844 0)"/>
     <use xlink:href="#DejaVuSans-61" transform="translate(597.876953 0)"/>
     <use xlink:href="#DejaVuSans-6e" transform="translate(659.15625 0)"/>
     <use xlink:href="#DejaVuSans-64" transform="translate(722.535156 0)"/>
     <use xlink:href="#DejaVuSans-20" transform="translate(786.011719 0)"/>
     <use xlink:href="#DejaVuSans-62" transform="translate(817.798828 0)"/>
     <use xlink:href="#DejaVuSans-65" transform="translate(881.275391 0)"/>
     <use xlink:href="#DejaVuSans-73" transform="translate(942.798828 0)"/>
     <use xlink:href="#DejaVuSans-74" transform="translate(994.898438 0)"/>
     <use xlink:href="#DejaVuSans-20" transform="translate(1034.107422 0)"/>
     <use xlink:href="#DejaVuSans-61" transform="translate(1065.894531 0)"/>
     <use xlink:href="#DejaVuSans-76" transform="translate(1127.173828 0)"/>
     <use xlink:href="#DejaVuSans-61" transform="translate(1186.353516 0)"/>
     <use xlink:href="#DejaVuSans-69" transform="translate(1247.632812 0)"/>
     <use xlink:href="#DejaVuSans-6c" transform="translate(1275.416016 0)"/>
     <use xlink:href="#DejaVuSans-61" transform="translate(1303.199219 0)"/>
     <use xlink:href="#DejaVuSans-62" transform="translate(1364.478516 0)"/>
     <use xlink:href="#DejaVuSans-6c" transform="translate(1427.955078 0)"/>
     <use xlink:href="#DejaVuSans-65" transform="translate(1455.738281 0)"/>
     <use xlink:href="#DejaVuSans-20" transform="translate(1517.261719 0)"/>
     <use xlink:href="#DejaVuSans-63" transform="translate(1549.048828 0)"/>
     <use xlink:href="#DejaVuSans-61" transform="translate(1604.029297 0)"/>
     <use xlink:href="#DejaVuSans-6e" transform="translate(1665.308594 0)"/>
     <use xlink:href="#DejaVuSans-64" transform="translate(1728.6875 0)"/>
     <use xlink:href="#DejaVuSans-69" transform="translate(1792.164062 0)"/>
     <use xlink:href="#DejaVuSans-64" transform="translate(1819.947266 0)"/>
     <use xlink:href="#DejaVuSans-61" transform="translate(1883.423828 0)"/>
     <use xlink:href="#DejaVuSans-74" transform="translate(1944.703125 0)"/>
     <use xlink:href="#DejaVuSans-65" transform="translate(1983.912109 0)"/>
    </g>
   </g>
   <g id="PathCollection_4">
    <defs>
     <path id="m3f6b01f71d" d="M 0 2.828427 
C 0.750108 2.828427 1.469594 2.530406 2 2 
C 2.530406 1.469594 2.828427 0.750108 2.828427 0 
C 2.828427 -0.750108 2.530406 -1.469594 2 -2 
C 1.469594 -2.530406 0.750108 -2.828427 0 -2.828427 
C -0.750108 -2.828427 -1.469594 -2.530406 -2 -2 
C -2.530406 -1.469594 -2.828427 -0.750108 -2.828427 0 
C -2.828427 0.750108 -2.530406 1.469594 -2 2 
C -1.469594 2.530406 -0.750108 2.828427 0 2.828427 
z
" style="stroke: #4d6172"/>
    </defs>
    <g clip-path="url(#pc77b1a28e9)">
     <use xlink:href="#m3f6b01f71d" x="176.999738" y="151.7175" style="fill: #4d6172; stroke: #4d6172"/>
    </g>
   </g>
   <g id="PathCollection_5">
    <g clip-path="url(#pc77b1a28e9)">
     <use xlink:href="#m3f6b01f71d" x="326.260065" y="214.58" style="fill: #4d6172; stroke: #4d6172"/>
    </g>
   </g>
   <g id="PathCollection_6">
    <g clip-path="url(#pc77b1a28e9)">
     <use xlink:href="#m3f6b01f71d" x="172.428912" y="277.4425" style="fill: #4d6172; stroke: #4d6172"/>
    </g>
   </g>
  </g>
  <g id="axes_2">
   <g id="patch_7">
    <path d="M 696.794262 315.16 
L 869.4 315.16 
L 869.4 114 
L 696.794262 114 
z
" style="fill: #ffffff"/>
   </g>
   <g id="patch_8">
    <path d="M 696.794262 186.291875 
L 869.4 186.291875 
L 869.4 242.868125 
L 696.794262 242.868125 
z
" clip-path="url(#p21fba73db8)" style="fill: #f1f3f5; stroke: #f1f3f5; stroke-linejoin: miter"/>
   </g>
   <g id="patch_9">
    <path d="M 696.794262 249.154375 
L 869.4 249.154375 
L 869.4 305.730625 
L 696.794262 305.730625 
z
" clip-path="url(#p21fba73db8)" style="fill: #f1f3f5; stroke: #f1f3f5; stroke-linejoin: miter"/>
   </g>
   <g id="matplotlib.axis_3"/>
   <g id="matplotlib.axis_4">
    <g id="ytick_4"/>
    <g id="ytick_5"/>
    <g id="ytick_6"/>
   </g>
   <g id="text_12">
    <!-- 0/25 -->
    <g transform="translate(714.054836 154.476875) scale(0.1 -0.1)">
     <use xlink:href="#DejaVuSans-30"/>
     <use xlink:href="#DejaVuSans-2f" transform="translate(63.623047 0)"/>
     <use xlink:href="#DejaVuSans-32" transform="translate(97.314453 0)"/>
     <use xlink:href="#DejaVuSans-35" transform="translate(160.9375 0)"/>
    </g>
   </g>
   <g id="text_13">
    <!-- 25/25 -->
    <g transform="translate(803.80982 154.476875) scale(0.1 -0.1)">
     <use xlink:href="#DejaVuSans-32"/>
     <use xlink:href="#DejaVuSans-35" transform="translate(63.623047 0)"/>
     <use xlink:href="#DejaVuSans-2f" transform="translate(127.246094 0)"/>
     <use xlink:href="#DejaVuSans-32" transform="translate(160.9375 0)"/>
     <use xlink:href="#DejaVuSans-35" transform="translate(224.560547 0)"/>
    </g>
   </g>
   <g id="text_14">
    <!-- 24/25 -->
    <g transform="translate(714.054836 217.339375) scale(0.1 -0.1)">
     <use xlink:href="#DejaVuSans-32"/>
     <use xlink:href="#DejaVuSans-34" transform="translate(63.623047 0)"/>
     <use xlink:href="#DejaVuSans-2f" transform="translate(127.246094 0)"/>
     <use xlink:href="#DejaVuSans-32" transform="translate(160.9375 0)"/>
     <use xlink:href="#DejaVuSans-35" transform="translate(224.560547 0)"/>
    </g>
   </g>
   <g id="text_15">
    <!-- 25/25 -->
    <g transform="translate(803.80982 217.339375) scale(0.1 -0.1)">
     <use xlink:href="#DejaVuSans-32"/>
     <use xlink:href="#DejaVuSans-35" transform="translate(63.623047 0)"/>
     <use xlink:href="#DejaVuSans-2f" transform="translate(127.246094 0)"/>
     <use xlink:href="#DejaVuSans-32" transform="translate(160.9375 0)"/>
     <use xlink:href="#DejaVuSans-35" transform="translate(224.560547 0)"/>
    </g>
   </g>
   <g id="text_16">
    <!-- 0/25 -->
    <g transform="translate(714.054836 280.201875) scale(0.1 -0.1)">
     <use xlink:href="#DejaVuSans-30"/>
     <use xlink:href="#DejaVuSans-2f" transform="translate(63.623047 0)"/>
     <use xlink:href="#DejaVuSans-32" transform="translate(97.314453 0)"/>
     <use xlink:href="#DejaVuSans-35" transform="translate(160.9375 0)"/>
    </g>
   </g>
   <g id="text_17">
    <!-- 25/25 -->
    <g transform="translate(803.80982 280.201875) scale(0.1 -0.1)">
     <use xlink:href="#DejaVuSans-32"/>
     <use xlink:href="#DejaVuSans-35" transform="translate(63.623047 0)"/>
     <use xlink:href="#DejaVuSans-2f" transform="translate(127.246094 0)"/>
     <use xlink:href="#DejaVuSans-32" transform="translate(160.9375 0)"/>
     <use xlink:href="#DejaVuSans-35" transform="translate(224.560547 0)"/>
    </g>
   </g>
   <g id="text_18">
    <!-- Acceptable     Evaluated -->
    <g transform="translate(696.794262 108) scale(0.1 -0.1)">
     <use xlink:href="#DejaVuSans-41"/>
     <use xlink:href="#DejaVuSans-63" transform="translate(66.658203 0)"/>
     <use xlink:href="#DejaVuSans-63" transform="translate(121.638672 0)"/>
     <use xlink:href="#DejaVuSans-65" transform="translate(176.619141 0)"/>
     <use xlink:href="#DejaVuSans-70" transform="translate(238.142578 0)"/>
     <use xlink:href="#DejaVuSans-74" transform="translate(301.619141 0)"/>
     <use xlink:href="#DejaVuSans-61" transform="translate(340.828125 0)"/>
     <use xlink:href="#DejaVuSans-62" transform="translate(402.107422 0)"/>
     <use xlink:href="#DejaVuSans-6c" transform="translate(465.583984 0)"/>
     <use xlink:href="#DejaVuSans-65" transform="translate(493.367188 0)"/>
     <use xlink:href="#DejaVuSans-20" transform="translate(554.890625 0)"/>
     <use xlink:href="#DejaVuSans-20" transform="translate(586.677734 0)"/>
     <use xlink:href="#DejaVuSans-20" transform="translate(618.464844 0)"/>
     <use xlink:href="#DejaVuSans-20" transform="translate(650.251953 0)"/>
     <use xlink:href="#DejaVuSans-20" transform="translate(682.039062 0)"/>
     <use xlink:href="#DejaVuSans-45" transform="translate(713.826172 0)"/>
     <use xlink:href="#DejaVuSans-76" transform="translate(777.009766 0)"/>
     <use xlink:href="#DejaVuSans-61" transform="translate(836.189453 0)"/>
     <use xlink:href="#DejaVuSans-6c" transform="translate(897.46875 0)"/>
     <use xlink:href="#DejaVuSans-75" transform="translate(925.251953 0)"/>
     <use xlink:href="#DejaVuSans-61" transform="translate(988.630859 0)"/>
     <use xlink:href="#DejaVuSans-74" transform="translate(1049.910156 0)"/>
     <use xlink:href="#DejaVuSans-65" transform="translate(1089.119141 0)"/>
     <use xlink:href="#DejaVuSans-64" transform="translate(1150.642578 0)"/>
    </g>
   </g>
  </g>
  <g id="text_19">
   <!-- ConfoVHH · 75 reserved attempts -->
   <g transform="translate(7.2 21.637031) scale(0.19 -0.19)">
    <defs>
     <path id="DejaVuSans-Bold-43" d="M 4288 256 
Q 3956 84 3597 -3 
Q 3238 -91 2847 -91 
Q 1681 -91 1000 561 
Q 319 1213 319 2328 
Q 319 3447 1000 4098 
Q 1681 4750 2847 4750 
Q 3238 4750 3597 4662 
Q 3956 4575 4288 4403 
L 4288 3438 
Q 3953 3666 3628 3772 
Q 3303 3878 2944 3878 
Q 2300 3878 1931 3465 
Q 1563 3053 1563 2328 
Q 1563 1606 1931 1193 
Q 2300 781 2944 781 
Q 3303 781 3628 887 
Q 3953 994 4288 1222 
L 4288 256 
z
" transform="scale(0.015625)"/>
     <path id="DejaVuSans-Bold-6f" d="M 2203 2784 
Q 1831 2784 1636 2517 
Q 1441 2250 1441 1747 
Q 1441 1244 1636 976 
Q 1831 709 2203 709 
Q 2569 709 2762 976 
Q 2956 1244 2956 1747 
Q 2956 2250 2762 2517 
Q 2569 2784 2203 2784 
z
M 2203 3584 
Q 3106 3584 3614 3096 
Q 4122 2609 4122 1747 
Q 4122 884 3614 396 
Q 3106 -91 2203 -91 
Q 1297 -91 786 396 
Q 275 884 275 1747 
Q 275 2609 786 3096 
Q 1297 3584 2203 3584 
z
" transform="scale(0.015625)"/>
     <path id="DejaVuSans-Bold-6e" d="M 4056 2131 
L 4056 0 
L 2931 0 
L 2931 347 
L 2931 1631 
Q 2931 2084 2911 2256 
Q 2891 2428 2841 2509 
Q 2775 2619 2662 2680 
Q 2550 2741 2406 2741 
Q 2056 2741 1856 2470 
Q 1656 2200 1656 1722 
L 1656 0 
L 538 0 
L 538 3500 
L 1656 3500 
L 1656 2988 
Q 1909 3294 2193 3439 
Q 2478 3584 2822 3584 
Q 3428 3584 3742 3212 
Q 4056 2841 4056 2131 
z
" transform="scale(0.015625)"/>
     <path id="DejaVuSans-Bold-66" d="M 2841 4863 
L 2841 4128 
L 2222 4128 
Q 1984 4128 1890 4042 
Q 1797 3956 1797 3744 
L 1797 3500 
L 2753 3500 
L 2753 2700 
L 1797 2700 
L 1797 0 
L 678 0 
L 678 2700 
L 122 2700 
L 122 3500 
L 678 3500 
L 678 3744 
Q 678 4316 997 4589 
Q 1316 4863 1984 4863 
L 2841 4863 
z
" transform="scale(0.015625)"/>
     <path id="DejaVuSans-Bold-56" d="M 31 4666 
L 1241 4666 
L 2478 1222 
L 3713 4666 
L 4922 4666 
L 3194 0 
L 1759 0 
L 31 4666 
z
" transform="scale(0.015625)"/>
     <path id="DejaVuSans-Bold-48" d="M 588 4666 
L 1791 4666 
L 1791 2888 
L 3566 2888 
L 3566 4666 
L 4769 4666 
L 4769 0 
L 3566 0 
L 3566 1978 
L 1791 1978 
L 1791 0 
L 588 0 
L 588 4666 
z
" transform="scale(0.015625)"/>
     <path id="DejaVuSans-Bold-20" transform="scale(0.015625)"/>
     <path id="DejaVuSans-Bold-b7" d="M 653 2828 
L 1778 2828 
L 1778 1619 
L 653 1619 
L 653 2828 
z
" transform="scale(0.015625)"/>
     <path id="DejaVuSans-Bold-37" d="M 428 4666 
L 3944 4666 
L 3944 3988 
L 2125 0 
L 953 0 
L 2675 3781 
L 428 3781 
L 428 4666 
z
" transform="scale(0.015625)"/>
     <path id="DejaVuSans-Bold-35" d="M 678 4666 
L 3669 4666 
L 3669 3781 
L 1638 3781 
L 1638 3059 
Q 1775 3097 1914 3117 
Q 2053 3138 2203 3138 
Q 3056 3138 3531 2711 
Q 4006 2284 4006 1522 
Q 4006 766 3489 337 
Q 2972 -91 2053 -91 
Q 1656 -91 1267 -14 
Q 878 63 494 219 
L 494 1166 
Q 875 947 1217 837 
Q 1559 728 1863 728 
Q 2300 728 2551 942 
Q 2803 1156 2803 1522 
Q 2803 1891 2551 2103 
Q 2300 2316 1863 2316 
Q 1603 2316 1309 2248 
Q 1016 2181 678 2041 
L 678 4666 
z
" transform="scale(0.015625)"/>
     <path id="DejaVuSans-Bold-72" d="M 3138 2547 
Q 2991 2616 2845 2648 
Q 2700 2681 2553 2681 
Q 2122 2681 1889 2404 
Q 1656 2128 1656 1613 
L 1656 0 
L 538 0 
L 538 3500 
L 1656 3500 
L 1656 2925 
Q 1872 3269 2151 3426 
Q 2431 3584 2822 3584 
Q 2878 3584 2943 3579 
Q 3009 3575 3134 3559 
L 3138 2547 
z
" transform="scale(0.015625)"/>
     <path id="DejaVuSans-Bold-65" d="M 4031 1759 
L 4031 1441 
L 1416 1441 
Q 1456 1047 1700 850 
Q 1944 653 2381 653 
Q 2734 653 3104 758 
Q 3475 863 3866 1075 
L 3866 213 
Q 3469 63 3072 -14 
Q 2675 -91 2278 -91 
Q 1328 -91 801 392 
Q 275 875 275 1747 
Q 275 2603 792 3093 
Q 1309 3584 2216 3584 
Q 3041 3584 3536 3087 
Q 4031 2591 4031 1759 
z
M 2881 2131 
Q 2881 2450 2695 2645 
Q 2509 2841 2209 2841 
Q 1884 2841 1681 2658 
Q 1478 2475 1428 2131 
L 2881 2131 
z
" transform="scale(0.015625)"/>
     <path id="DejaVuSans-Bold-73" d="M 3272 3391 
L 3272 2541 
Q 2913 2691 2578 2766 
Q 2244 2841 1947 2841 
Q 1628 2841 1473 2761 
Q 1319 2681 1319 2516 
Q 1319 2381 1436 2309 
Q 1553 2238 1856 2203 
L 2053 2175 
Q 2913 2066 3209 1816 
Q 3506 1566 3506 1031 
Q 3506 472 3093 190 
Q 2681 -91 1863 -91 
Q 1516 -91 1145 -36 
Q 775 19 384 128 
L 384 978 
Q 719 816 1070 734 
Q 1422 653 1784 653 
Q 2113 653 2278 743 
Q 2444 834 2444 1013 
Q 2444 1163 2330 1236 
Q 2216 1309 1875 1350 
L 1678 1375 
Q 931 1469 631 1722 
Q 331 1975 331 2491 
Q 331 3047 712 3315 
Q 1094 3584 1881 3584 
Q 2191 3584 2531 3537 
Q 2872 3491 3272 3391 
z
" transform="scale(0.015625)"/>
     <path id="DejaVuSans-Bold-76" d="M 97 3500 
L 1216 3500 
L 2088 1081 
L 2956 3500 
L 4078 3500 
L 2700 0 
L 1472 0 
L 97 3500 
z
" transform="scale(0.015625)"/>
     <path id="DejaVuSans-Bold-64" d="M 2919 2988 
L 2919 4863 
L 4044 4863 
L 4044 0 
L 2919 0 
L 2919 506 
Q 2688 197 2409 53 
Q 2131 -91 1766 -91 
Q 1119 -91 703 423 
Q 288 938 288 1747 
Q 288 2556 703 3070 
Q 1119 3584 1766 3584 
Q 2128 3584 2408 3439 
Q 2688 3294 2919 2988 
z
M 2181 722 
Q 2541 722 2730 984 
Q 2919 1247 2919 1747 
Q 2919 2247 2730 2509 
Q 2541 2772 2181 2772 
Q 1825 2772 1636 2509 
Q 1447 2247 1447 1747 
Q 1447 1247 1636 984 
Q 1825 722 2181 722 
z
" transform="scale(0.015625)"/>
     <path id="DejaVuSans-Bold-61" d="M 2106 1575 
Q 1756 1575 1579 1456 
Q 1403 1338 1403 1106 
Q 1403 894 1545 773 
Q 1688 653 1941 653 
Q 2256 653 2472 879 
Q 2688 1106 2688 1447 
L 2688 1575 
L 2106 1575 
z
M 3816 1997 
L 3816 0 
L 2688 0 
L 2688 519 
Q 2463 200 2181 54 
Q 1900 -91 1497 -91 
Q 953 -91 614 226 
Q 275 544 275 1050 
Q 275 1666 698 1953 
Q 1122 2241 2028 2241 
L 2688 2241 
L 2688 2328 
Q 2688 2594 2478 2717 
Q 2269 2841 1825 2841 
Q 1466 2841 1156 2769 
Q 847 2697 581 2553 
L 581 3406 
Q 941 3494 1303 3539 
Q 1666 3584 2028 3584 
Q 2975 3584 3395 3211 
Q 3816 2838 3816 1997 
z
" transform="scale(0.015625)"/>
     <path id="DejaVuSans-Bold-74" d="M 1759 4494 
L 1759 3500 
L 2913 3500 
L 2913 2700 
L 1759 2700 
L 1759 1216 
Q 1759 972 1856 886 
Q 1953 800 2241 800 
L 2816 800 
L 2816 0 
L 1856 0 
Q 1194 0 917 276 
Q 641 553 641 1216 
L 641 2700 
L 84 2700 
L 84 3500 
L 641 3500 
L 641 4494 
L 1759 4494 
z
" transform="scale(0.015625)"/>
     <path id="DejaVuSans-Bold-6d" d="M 3781 2919 
Q 3994 3244 4286 3414 
Q 4578 3584 4928 3584 
Q 5531 3584 5847 3212 
Q 6163 2841 6163 2131 
L 6163 0 
L 5038 0 
L 5038 1825 
Q 5041 1866 5042 1909 
Q 5044 1953 5044 2034 
Q 5044 2406 4934 2573 
Q 4825 2741 4581 2741 
Q 4263 2741 4089 2478 
Q 3916 2216 3909 1719 
L 3909 0 
L 2784 0 
L 2784 1825 
Q 2784 2406 2684 2573 
Q 2584 2741 2328 2741 
Q 2006 2741 1831 2477 
Q 1656 2213 1656 1722 
L 1656 0 
L 531 0 
L 531 3500 
L 1656 3500 
L 1656 2988 
Q 1863 3284 2130 3434 
Q 2397 3584 2719 3584 
Q 3081 3584 3359 3409 
Q 3638 3234 3781 2919 
z
" transform="scale(0.015625)"/>
     <path id="DejaVuSans-Bold-70" d="M 1656 506 
L 1656 -1331 
L 538 -1331 
L 538 3500 
L 1656 3500 
L 1656 2988 
Q 1888 3294 2169 3439 
Q 2450 3584 2816 3584 
Q 3463 3584 3878 3070 
Q 4294 2556 4294 1747 
Q 4294 938 3878 423 
Q 3463 -91 2816 -91 
Q 2450 -91 2169 54 
Q 1888 200 1656 506 
z
M 2400 2772 
Q 2041 2772 1848 2508 
Q 1656 2244 1656 1747 
Q 1656 1250 1848 986 
Q 2041 722 2400 722 
Q 2759 722 2948 984 
Q 3138 1247 3138 1747 
Q 3138 2247 2948 2509 
Q 2759 2772 2400 2772 
z
" transform="scale(0.015625)"/>
    </defs>
    <use xlink:href="#DejaVuSans-Bold-43"/>
    <use xlink:href="#DejaVuSans-Bold-6f" transform="translate(73.388672 0)"/>
    <use xlink:href="#DejaVuSans-Bold-6e" transform="translate(142.089844 0)"/>
    <use xlink:href="#DejaVuSans-Bold-66" transform="translate(213.28125 0)"/>
    <use xlink:href="#DejaVuSans-Bold-6f" transform="translate(256.787109 0)"/>
    <use xlink:href="#DejaVuSans-Bold-56" transform="translate(325.488281 0)"/>
    <use xlink:href="#DejaVuSans-Bold-48" transform="translate(402.880859 0)"/>
    <use xlink:href="#DejaVuSans-Bold-48" transform="translate(486.572266 0)"/>
    <use xlink:href="#DejaVuSans-Bold-20" transform="translate(570.263672 0)"/>
    <use xlink:href="#DejaVuSans-Bold-b7" transform="translate(605.078125 0)"/>
    <use xlink:href="#DejaVuSans-Bold-20" transform="translate(643.066406 0)"/>
    <use xlink:href="#DejaVuSans-Bold-37" transform="translate(677.880859 0)"/>
    <use xlink:href="#DejaVuSans-Bold-35" transform="translate(747.460938 0)"/>
    <use xlink:href="#DejaVuSans-Bold-20" transform="translate(817.041016 0)"/>
    <use xlink:href="#DejaVuSans-Bold-72" transform="translate(851.855469 0)"/>
    <use xlink:href="#DejaVuSans-Bold-65" transform="translate(901.171875 0)"/>
    <use xlink:href="#DejaVuSans-Bold-73" transform="translate(968.994141 0)"/>
    <use xlink:href="#DejaVuSans-Bold-65" transform="translate(1028.515625 0)"/>
    <use xlink:href="#DejaVuSans-Bold-72" transform="translate(1096.337891 0)"/>
    <use xlink:href="#DejaVuSans-Bold-76" transform="translate(1145.654297 0)"/>
    <use xlink:href="#DejaVuSans-Bold-65" transform="translate(1210.839844 0)"/>
    <use xlink:href="#DejaVuSans-Bold-64" transform="translate(1278.662109 0)"/>
    <use xlink:href="#DejaVuSans-Bold-20" transform="translate(1350.244141 0)"/>
    <use xlink:href="#DejaVuSans-Bold-61" transform="translate(1385.058594 0)"/>
    <use xlink:href="#DejaVuSans-Bold-74" transform="translate(1452.539062 0)"/>
    <use xlink:href="#DejaVuSans-Bold-74" transform="translate(1500.341797 0)"/>
    <use xlink:href="#DejaVuSans-Bold-65" transform="translate(1548.144531 0)"/>
    <use xlink:href="#DejaVuSans-Bold-6d" transform="translate(1615.966797 0)"/>
    <use xlink:href="#DejaVuSans-Bold-70" transform="translate(1720.166016 0)"/>
    <use xlink:href="#DejaVuSans-Bold-74" transform="translate(1791.748047 0)"/>
    <use xlink:href="#DejaVuSans-Bold-73" transform="translate(1839.550781 0)"/>
   </g>
  </g>
  <g id="text_20">
   <!-- Selection and generation rules were frozen before these predictions. Each tick marks the best evaluated candidate. -->
   <g transform="translate(7.2 39.6) scale(0.09 -0.09)">
    <defs>
     <path id="DejaVuSans-7a" d="M 353 3500 
L 3084 3500 
L 3084 2975 
L 922 459 
L 3084 459 
L 3084 0 
L 275 0 
L 275 525 
L 2438 3041 
L 353 3041 
L 353 3500 
z
" transform="scale(0.015625)"/>
    </defs>
    <use xlink:href="#DejaVuSans-53"/>
    <use xlink:href="#DejaVuSans-65" transform="translate(63.476562 0)"/>
    <use xlink:href="#DejaVuSans-6c" transform="translate(125 0)"/>
    <use xlink:href="#DejaVuSans-65" transform="translate(152.783203 0)"/>
    <use xlink:href="#DejaVuSans-63" transform="translate(214.306641 0)"/>
    <use xlink:href="#DejaVuSans-74" transform="translate(269.287109 0)"/>
    <use xlink:href="#DejaVuSans-69" transform="translate(308.496094 0)"/>
    <use xlink:href="#DejaVuSans-6f" transform="translate(336.279297 0)"/>
    <use xlink:href="#DejaVuSans-6e" transform="translate(397.460938 0)"/>
    <use xlink:href="#DejaVuSans-20" transform="translate(460.839844 0)"/>
    <use xlink:href="#DejaVuSans-61" transform="translate(492.626953 0)"/>
    <use xlink:href="#DejaVuSans-6e" transform="translate(553.90625 0)"/>
    <use xlink:href="#DejaVuSans-64" transform="translate(617.285156 0)"/>
    <use xlink:href="#DejaVuSans-20" transform="translate(680.761719 0)"/>
    <use xlink:href="#DejaVuSans-67" transform="translate(712.548828 0)"/>
    <use xlink:href="#DejaVuSans-65" transform="translate(776.025391 0)"/>
    <use xlink:href="#DejaVuSans-6e" transform="translate(837.548828 0)"/>
    <use xlink:href="#DejaVuSans-65" transform="translate(900.927734 0)"/>
    <use xlink:href="#DejaVuSans-72" transform="translate(962.451172 0)"/>
    <use xlink:href="#DejaVuSans-61" transform="translate(1003.564453 0)"/>
    <use xlink:href="#DejaVuSans-74" transform="translate(1064.84375 0)"/>
    <use xlink:href="#DejaVuSans-69" transform="translate(1104.052734 0)"/>
    <use xlink:href="#DejaVuSans-6f" transform="translate(1131.835938 0)"/>
    <use xlink:href="#DejaVuSans-6e" transform="translate(1193.017578 0)"/>
    <use xlink:href="#DejaVuSans-20" transform="translate(1256.396484 0)"/>
    <use xlink:href="#DejaVuSans-72" transform="translate(1288.183594 0)"/>
    <use xlink:href="#DejaVuSans-75" transform="translate(1329.296875 0)"/>
    <use xlink:href="#DejaVuSans-6c" transform="translate(1392.675781 0)"/>
    <use xlink:href="#DejaVuSans-65" transform="translate(1420.458984 0)"/>
    <use xlink:href="#DejaVuSans-73" transform="translate(1481.982422 0)"/>
    <use xlink:href="#DejaVuSans-20" transform="translate(1534.082031 0)"/>
    <use xlink:href="#DejaVuSans-77" transform="translate(1565.869141 0)"/>
    <use xlink:href="#DejaVuSans-65" transform="translate(1647.65625 0)"/>
    <use xlink:href="#DejaVuSans-72" transform="translate(1709.179688 0)"/>
    <use xlink:href="#DejaVuSans-65" transform="translate(1748.042969 0)"/>
    <use xlink:href="#DejaVuSans-20" transform="translate(1809.566406 0)"/>
    <use xlink:href="#DejaVuSans-66" transform="translate(1841.353516 0)"/>
    <use xlink:href="#DejaVuSans-72" transform="translate(1876.558594 0)"/>
    <use xlink:href="#DejaVuSans-6f" transform="translate(1915.421875 0)"/>
    <use xlink:href="#DejaVuSans-7a" transform="translate(1976.603516 0)"/>
    <use xlink:href="#DejaVuSans-65" transform="translate(2029.09375 0)"/>
    <use xlink:href="#DejaVuSans-6e" transform="translate(2090.617188 0)"/>
    <use xlink:href="#DejaVuSans-20" transform="translate(2153.996094 0)"/>
    <use xlink:href="#DejaVuSans-62" transform="translate(2185.783203 0)"/>
    <use xlink:href="#DejaVuSans-65" transform="translate(2249.259766 0)"/>
    <use xlink:href="#DejaVuSans-66" transform="translate(2310.783203 0)"/>
    <use xlink:href="#DejaVuSans-6f" transform="translate(2345.988281 0)"/>
    <use xlink:href="#DejaVuSans-72" transform="translate(2407.169922 0)"/>
    <use xlink:href="#DejaVuSans-65" transform="translate(2446.033203 0)"/>
    <use xlink:href="#DejaVuSans-20" transform="translate(2507.556641 0)"/>
    <use xlink:href="#DejaVuSans-74" transform="translate(2539.34375 0)"/>
    <use xlink:href="#DejaVuSans-68" transform="translate(2578.552734 0)"/>
    <use xlink:href="#DejaVuSans-65" transform="translate(2641.931641 0)"/>
    <use xlink:href="#DejaVuSans-73" transform="translate(2703.455078 0)"/>
    <use xlink:href="#DejaVuSans-65" transform="translate(2755.554688 0)"/>
    <use xlink:href="#DejaVuSans-20" transform="translate(2817.078125 0)"/>
    <use xlink:href="#DejaVuSans-70" transform="translate(2848.865234 0)"/>
    <use xlink:href="#DejaVuSans-72" transform="translate(2912.341797 0)"/>
    <use xlink:href="#DejaVuSans-65" transform="translate(2951.205078 0)"/>
    <use xlink:href="#DejaVuSans-64" transform="translate(3012.728516 0)"/>
    <use xlink:href="#DejaVuSans-69" transform="translate(3076.205078 0)"/>
    <use xlink:href="#DejaVuSans-63" transform="translate(3103.988281 0)"/>
    <use xlink:href="#DejaVuSans-74" transform="translate(3158.96875 0)"/>
    <use xlink:href="#DejaVuSans-69" transform="translate(3198.177734 0)"/>
    <use xlink:href="#DejaVuSans-6f" transform="translate(3225.960938 0)"/>
    <use xlink:href="#DejaVuSans-6e" transform="translate(3287.142578 0)"/>
    <use xlink:href="#DejaVuSans-73" transform="translate(3350.521484 0)"/>
    <use xlink:href="#DejaVuSans-2e" transform="translate(3402.621094 0)"/>
    <use xlink:href="#DejaVuSans-20" transform="translate(3434.408203 0)"/>
    <use xlink:href="#DejaVuSans-45" transform="translate(3466.195312 0)"/>
    <use xlink:href="#DejaVuSans-61" transform="translate(3529.378906 0)"/>
    <use xlink:href="#DejaVuSans-63" transform="translate(3590.658203 0)"/>
    <use xlink:href="#DejaVuSans-68" transform="translate(3645.638672 0)"/>
    <use xlink:href="#DejaVuSans-20" transform="translate(3709.017578 0)"/>
    <use xlink:href="#DejaVuSans-74" transform="translate(3740.804688 0)"/>
    <use xlink:href="#DejaVuSans-69" transform="translate(3780.013672 0)"/>
    <use xlink:href="#DejaVuSans-63" transform="translate(3807.796875 0)"/>
    <use xlink:href="#DejaVuSans-6b" transform="translate(3862.777344 0)"/>
    <use xlink:href="#DejaVuSans-20" transform="translate(3920.6875 0)"/>
    <use xlink:href="#DejaVuSans-6d" transform="translate(3952.474609 0)"/>
    <use xlink:href="#DejaVuSans-61" transform="translate(4049.886719 0)"/>
    <use xlink:href="#DejaVuSans-72" transform="translate(4111.166016 0)"/>
    <use xlink:href="#DejaVuSans-6b" transform="translate(4152.279297 0)"/>
    <use xlink:href="#DejaVuSans-73" transform="translate(4210.189453 0)"/>
    <use xlink:href="#DejaVuSans-20" transform="translate(4262.289062 0)"/>
    <use xlink:href="#DejaVuSans-74" transform="translate(4294.076172 0)"/>
    <use xlink:href="#DejaVuSans-68" transform="translate(4333.285156 0)"/>
    <use xlink:href="#DejaVuSans-65" transform="translate(4396.664062 0)"/>
    <use xlink:href="#DejaVuSans-20" transform="translate(4458.1875 0)"/>
    <use xlink:href="#DejaVuSans-62" transform="translate(4489.974609 0)"/>
    <use xlink:href="#DejaVuSans-65" transform="translate(4553.451172 0)"/>
    <use xlink:href="#DejaVuSans-73" transform="translate(4614.974609 0)"/>
    <use xlink:href="#DejaVuSans-74" transform="translate(4667.074219 0)"/>
    <use xlink:href="#DejaVuSans-20" transform="translate(4706.283203 0)"/>
    <use xlink:href="#DejaVuSans-65" transform="translate(4738.070312 0)"/>
    <use xlink:href="#DejaVuSans-76" transform="translate(4799.59375 0)"/>
    <use xlink:href="#DejaVuSans-61" transform="translate(4858.773438 0)"/>
    <use xlink:href="#DejaVuSans-6c" transform="translate(4920.052734 0)"/>
    <use xlink:href="#DejaVuSans-75" transform="translate(4947.835938 0)"/>
    <use xlink:href="#DejaVuSans-61" transform="translate(5011.214844 0)"/>
    <use xlink:href="#DejaVuSans-74" transform="translate(5072.494141 0)"/>
    <use xlink:href="#DejaVuSans-65" transform="translate(5111.703125 0)"/>
    <use xlink:href="#DejaVuSans-64" transform="translate(5173.226562 0)"/>
    <use xlink:href="#DejaVuSans-20" transform="translate(5236.703125 0)"/>
    <use xlink:href="#DejaVuSans-63" transform="translate(5268.490234 0)"/>
    <use xlink:href="#DejaVuSans-61" transform="translate(5323.470703 0)"/>
    <use xlink:href="#DejaVuSans-6e" transform="translate(5384.75 0)"/>
    <use xlink:href="#DejaVuSans-64" transform="translate(5448.128906 0)"/>
    <use xlink:href="#DejaVuSans-69" transform="translate(5511.605469 0)"/>
    <use xlink:href="#DejaVuSans-64" transform="translate(5539.388672 0)"/>
    <use xlink:href="#DejaVuSans-61" transform="translate(5602.865234 0)"/>
    <use xlink:href="#DejaVuSans-74" transform="translate(5664.144531 0)"/>
    <use xlink:href="#DejaVuSans-65" transform="translate(5703.353516 0)"/>
    <use xlink:href="#DejaVuSans-2e" transform="translate(5764.876953 0)"/>
   </g>
  </g>
  <g id="text_21">
   <!-- ADGRV1 is the only learner-eligible group. Shaded cases test source/fallback coverage in full assemblies. -->
   <g style="fill: #535e68" transform="translate(7.2 408.3235) scale(0.08 -0.08)">
    <defs>
     <path id="DejaVuSans-2d" d="M 313 2009 
L 1997 2009 
L 1997 1497 
L 313 1497 
L 313 2009 
z
" transform="scale(0.015625)"/>
    </defs>
    <use xlink:href="#DejaVuSans-41"/>
    <use xlink:href="#DejaVuSans-44" transform="translate(68.408203 0)"/>
    <use xlink:href="#DejaVuSans-47" transform="translate(145.410156 0)"/>
    <use xlink:href="#DejaVuSans-52" transform="translate(222.900391 0)"/>
    <use xlink:href="#DejaVuSans-56" transform="translate(286.882812 0)"/>
    <use xlink:href="#DejaVuSans-31" transform="translate(355.291016 0)"/>
    <use xlink:href="#DejaVuSans-20" transform="translate(418.914062 0)"/>
    <use xlink:href="#DejaVuSans-69" transform="translate(450.701172 0)"/>
    <use xlink:href="#DejaVuSans-73" transform="translate(478.484375 0)"/>
    <use xlink:href="#DejaVuSans-20" transform="translate(530.583984 0)"/>
    <use xlink:href="#DejaVuSans-74" transform="translate(562.371094 0)"/>
    <use xlink:href="#DejaVuSans-68" transform="translate(601.580078 0)"/>
    <use xlink:href="#DejaVuSans-65" transform="translate(664.958984 0)"/>
    <use xlink:href="#DejaVuSans-20" transform="translate(726.482422 0)"/>
    <use xlink:href="#DejaVuSans-6f" transform="translate(758.269531 0)"/>
    <use xlink:href="#DejaVuSans-6e" transform="translate(819.451172 0)"/>
    <use xlink:href="#DejaVuSans-6c" transform="translate(882.830078 0)"/>
    <use xlink:href="#DejaVuSans-79" transform="translate(910.613281 0)"/>
    <use xlink:href="#DejaVuSans-20" transform="translate(969.792969 0)"/>
    <use xlink:href="#DejaVuSans-6c" transform="translate(1001.580078 0)"/>
    <use xlink:href="#DejaVuSans-65" transform="translate(1029.363281 0)"/>
    <use xlink:href="#DejaVuSans-61" transform="translate(1090.886719 0)"/>
    <use xlink:href="#DejaVuSans-72" transform="translate(1152.166016 0)"/>
    <use xlink:href="#DejaVuSans-6e" transform="translate(1191.529297 0)"/>
    <use xlink:href="#DejaVuSans-65" transform="translate(1254.908203 0)"/>
    <use xlink:href="#DejaVuSans-72" transform="translate(1316.431641 0)"/>
    <use xlink:href="#DejaVuSans-2d" transform="translate(1351.169922 0)"/>
    <use xlink:href="#DejaVuSans-65" transform="translate(1387.253906 0)"/>
    <use xlink:href="#DejaVuSans-6c" transform="translate(1448.777344 0)"/>
    <use xlink:href="#DejaVuSans-69" transform="translate(1476.560547 0)"/>
    <use xlink:href="#DejaVuSans-67" transform="translate(1504.34375 0)"/>
    <use xlink:href="#DejaVuSans-69" transform="translate(1567.820312 0)"/>
    <use xlink:href="#DejaVuSans-62" transform="translate(1595.603516 0)"/>
    <use xlink:href="#DejaVuSans-6c" transform="translate(1659.080078 0)"/>
    <use xlink:href="#DejaVuSans-65" transform="translate(1686.863281 0)"/>
    <use xlink:href="#DejaVuSans-20" transform="translate(1748.386719 0)"/>
    <use xlink:href="#DejaVuSans-67" transform="translate(1780.173828 0)"/>
    <use xlink:href="#DejaVuSans-72" transform="translate(1843.650391 0)"/>
    <use xlink:href="#DejaVuSans-6f" transform="translate(1882.513672 0)"/>
    <use xlink:href="#DejaVuSans-75" transform="translate(1943.695312 0)"/>
    <use xlink:href="#DejaVuSans-70" transform="translate(2007.074219 0)"/>
    <use xlink:href="#DejaVuSans-2e" transform="translate(2070.550781 0)"/>
    <use xlink:href="#DejaVuSans-20" transform="translate(2102.337891 0)"/>
    <use xlink:href="#DejaVuSans-53" transform="translate(2134.125 0)"/>
    <use xlink:href="#DejaVuSans-68" transform="translate(2197.601562 0)"/>
    <use xlink:href="#DejaVuSans-61" transform="translate(2260.980469 0)"/>
    <use xlink:href="#DejaVuSans-64" transform="translate(2322.259766 0)"/>
    <use xlink:href="#DejaVuSans-65" transform="translate(2385.736328 0)"/>
    <use xlink:href="#DejaVuSans-64" transform="translate(2447.259766 0)"/>
    <use xlink:href="#DejaVuSans-20" transform="translate(2510.736328 0)"/>
    <use xlink:href="#DejaVuSans-63" transform="translate(2542.523438 0)"/>
    <use xlink:href="#DejaVuSans-61" transform="translate(2597.503906 0)"/>
    <use xlink:href="#DejaVuSans-73" transform="translate(2658.783203 0)"/>
    <use xlink:href="#DejaVuSans-65" transform="translate(2710.882812 0)"/>
    <use xlink:href="#DejaVuSans-73" transform="translate(2772.40625 0)"/>
    <use xlink:href="#DejaVuSans-20" transform="translate(2824.505859 0)"/>
    <use xlink:href="#DejaVuSans-74" transform="translate(2856.292969 0)"/>
    <use xlink:href="#DejaVuSans-65" transform="translate(2895.501953 0)"/>
    <use xlink:href="#DejaVuSans-73" transform="translate(2957.025391 0)"/>
    <use xlink:href="#DejaVuSans-74" transform="translate(3009.125 0)"/>
    <use xlink:href="#DejaVuSans-20" transform="translate(3048.333984 0)"/>
    <use xlink:href="#DejaVuSans-73" transform="translate(3080.121094 0)"/>
    <use xlink:href="#DejaVuSans-6f" transform="translate(3132.220703 0)"/>
    <use xlink:href="#DejaVuSans-75" transform="translate(3193.402344 0)"/>
    <use xlink:href="#DejaVuSans-72" transform="translate(3256.78125 0)"/>
    <use xlink:href="#DejaVuSans-63" transform="translate(3295.644531 0)"/>
    <use xlink:href="#DejaVuSans-65" transform="translate(3350.625 0)"/>
    <use xlink:href="#DejaVuSans-2f" transform="translate(3412.148438 0)"/>
    <use xlink:href="#DejaVuSans-66" transform="translate(3445.839844 0)"/>
    <use xlink:href="#DejaVuSans-61" transform="translate(3481.044922 0)"/>
    <use xlink:href="#DejaVuSans-6c" transform="translate(3542.324219 0)"/>
    <use xlink:href="#DejaVuSans-6c" transform="translate(3570.107422 0)"/>
    <use xlink:href="#DejaVuSans-62" transform="translate(3597.890625 0)"/>
    <use xlink:href="#DejaVuSans-61" transform="translate(3661.367188 0)"/>
    <use xlink:href="#DejaVuSans-63" transform="translate(3722.646484 0)"/>
    <use xlink:href="#DejaVuSans-6b" transform="translate(3777.626953 0)"/>
    <use xlink:href="#DejaVuSans-20" transform="translate(3835.537109 0)"/>
    <use xlink:href="#DejaVuSans-63" transform="translate(3867.324219 0)"/>
    <use xlink:href="#DejaVuSans-6f" transform="translate(3922.304688 0)"/>
    <use xlink:href="#DejaVuSans-76" transform="translate(3983.486328 0)"/>
    <use xlink:href="#DejaVuSans-65" transform="translate(4042.666016 0)"/>
    <use xlink:href="#DejaVuSans-72" transform="translate(4104.189453 0)"/>
    <use xlink:href="#DejaVuSans-61" transform="translate(4145.302734 0)"/>
    <use xlink:href="#DejaVuSans-67" transform="translate(4206.582031 0)"/>
    <use xlink:href="#DejaVuSans-65" transform="translate(4270.058594 0)"/>
    <use xlink:href="#DejaVuSans-20" transform="translate(4331.582031 0)"/>
    <use xlink:href="#DejaVuSans-69" transform="translate(4363.369141 0)"/>
    <use xlink:href="#DejaVuSans-6e" transform="translate(4391.152344 0)"/>
    <use xlink:href="#DejaVuSans-20" transform="translate(4454.53125 0)"/>
    <use xlink:href="#DejaVuSans-66" transform="translate(4486.318359 0)"/>
    <use xlink:href="#DejaVuSans-75" transform="translate(4521.523438 0)"/>
    <use xlink:href="#DejaVuSans-6c" transform="translate(4584.902344 0)"/>
    <use xlink:href="#DejaVuSans-6c" transform="translate(4612.685547 0)"/>
    <use xlink:href="#DejaVuSans-20" transform="translate(4640.46875 0)"/>
    <use xlink:href="#DejaVuSans-61" transform="translate(4672.255859 0)"/>
    <use xlink:href="#DejaVuSans-73" transform="translate(4733.535156 0)"/>
    <use xlink:href="#DejaVuSans-73" transform="translate(4785.634766 0)"/>
    <use xlink:href="#DejaVuSans-65" transform="translate(4837.734375 0)"/>
    <use xlink:href="#DejaVuSans-6d" transform="translate(4899.257812 0)"/>
    <use xlink:href="#DejaVuSans-62" transform="translate(4996.669922 0)"/>
    <use xlink:href="#DejaVuSans-6c" transform="translate(5060.146484 0)"/>
    <use xlink:href="#DejaVuSans-69" transform="translate(5087.929688 0)"/>
    <use xlink:href="#DejaVuSans-65" transform="translate(5115.712891 0)"/>
    <use xlink:href="#DejaVuSans-73" transform="translate(5177.236328 0)"/>
    <use xlink:href="#DejaVuSans-2e" transform="translate(5229.335938 0)"/>
   </g>
   <!-- Acceptable = DockQ ≥ 0.23. * denotes a lower bound when outcomes are unavailable. No population interval for one group. -->
   <g style="fill: #535e68" transform="translate(7.2 417.28175) scale(0.08 -0.08)">
    <defs>
     <path id="DejaVuSans-3d" d="M 678 2906 
L 4684 2906 
L 4684 2381 
L 678 2381 
L 678 2906 
z
M 678 1631 
L 4684 1631 
L 4684 1100 
L 678 1100 
L 678 1631 
z
" transform="scale(0.015625)"/>
     <path id="DejaVuSans-2265" d="M 678 3175 
L 678 3725 
L 4684 2578 
L 4684 2047 
L 678 897 
L 678 1453 
L 3681 2309 
L 678 3175 
z
M 4684 531 
L 4684 0 
L 678 0 
L 678 531 
L 4684 531 
z
" transform="scale(0.015625)"/>
     <path id="DejaVuSans-33" d="M 2597 2516 
Q 3050 2419 3304 2112 
Q 3559 1806 3559 1356 
Q 3559 666 3084 287 
Q 2609 -91 1734 -91 
Q 1441 -91 1130 -33 
Q 819 25 488 141 
L 488 750 
Q 750 597 1062 519 
Q 1375 441 1716 441 
Q 2309 441 2620 675 
Q 2931 909 2931 1356 
Q 2931 1769 2642 2001 
Q 2353 2234 1838 2234 
L 1294 2234 
L 1294 2753 
L 1863 2753 
Q 2328 2753 2575 2939 
Q 2822 3125 2822 3475 
Q 2822 3834 2567 4026 
Q 2313 4219 1838 4219 
Q 1578 4219 1281 4162 
Q 984 4106 628 3988 
L 628 4550 
Q 988 4650 1302 4700 
Q 1616 4750 1894 4750 
Q 2613 4750 3031 4423 
Q 3450 4097 3450 3541 
Q 3450 3153 3228 2886 
Q 3006 2619 2597 2516 
z
" transform="scale(0.015625)"/>
     <path id="DejaVuSans-2a" d="M 3009 3897 
L 1888 3291 
L 3009 2681 
L 2828 2375 
L 1778 3009 
L 1778 1831 
L 1422 1831 
L 1422 3009 
L 372 2375 
L 191 2681 
L 1313 3291 
L 191 3897 
L 372 4206 
L 1422 3572 
L 1422 4750 
L 1778 4750 
L 1778 3572 
L 2828 4206 
L 3009 3897 
z
" transform="scale(0.015625)"/>
    </defs>
    <use xlink:href="#DejaVuSans-41"/>
    <use xlink:href="#DejaVuSans-63" transform="translate(66.658203 0)"/>
    <use xlink:href="#DejaVuSans-63" transform="translate(121.638672 0)"/>
    <use xlink:href="#DejaVuSans-65" transform="translate(176.619141 0)"/>
    <use xlink:href="#DejaVuSans-70" transform="translate(238.142578 0)"/>
    <use xlink:href="#DejaVuSans-74" transform="translate(301.619141 0)"/>
    <use xlink:href="#DejaVuSans-61" transform="translate(340.828125 0)"/>
    <use xlink:href="#DejaVuSans-62" transform="translate(402.107422 0)"/>
    <use xlink:href="#DejaVuSans-6c" transform="translate(465.583984 0)"/>
    <use xlink:href="#DejaVuSans-65" transform="translate(493.367188 0)"/>
    <use xlink:href="#DejaVuSans-20" transform="translate(554.890625 0)"/>
    <use xlink:href="#DejaVuSans-3d" transform="translate(586.677734 0)"/>
    <use xlink:href="#DejaVuSans-20" transform="translate(670.466797 0)"/>
    <use xlink:href="#DejaVuSans-44" transform="translate(702.253906 0)"/>
    <use xlink:href="#DejaVuSans-6f" transform="translate(779.255859 0)"/>
    <use xlink:href="#DejaVuSans-63" transform="translate(840.4375 0)"/>
    <use xlink:href="#DejaVuSans-6b" transform="translate(895.417969 0)"/>
    <use xlink:href="#DejaVuSans-51" transform="translate(953.328125 0)"/>
    <use xlink:href="#DejaVuSans-20" transform="translate(1032.039062 0)"/>
    <use xlink:href="#DejaVuSans-2265" transform="translate(1063.826172 0)"/>
    <use xlink:href="#DejaVuSans-20" transform="translate(1147.615234 0)"/>
    <use xlink:href="#DejaVuSans-30" transform="translate(1179.402344 0)"/>
    <use xlink:href="#DejaVuSans-2e" transform="translate(1243.025391 0)"/>
    <use xlink:href="#DejaVuSans-32" transform="translate(1274.8125 0)"/>
    <use xlink:href="#DejaVuSans-33" transform="translate(1338.435547 0)"/>
    <use xlink:href="#DejaVuSans-2e" transform="translate(1402.058594 0)"/>
    <use xlink:href="#DejaVuSans-20" transform="translate(1433.845703 0)"/>
    <use xlink:href="#DejaVuSans-2a" transform="translate(1465.632812 0)"/>
    <use xlink:href="#DejaVuSans-20" transform="translate(1515.632812 0)"/>
    <use xlink:href="#DejaVuSans-64" transform="translate(1547.419922 0)"/>
    <use xlink:href="#DejaVuSans-65" transform="translate(1610.896484 0)"/>
    <use xlink:href="#DejaVuSans-6e" transform="translate(1672.419922 0)"/>
    <use xlink:href="#DejaVuSans-6f" transform="translate(1735.798828 0)"/>
    <use xlink:href="#DejaVuSans-74" transform="translate(1796.980469 0)"/>
    <use xlink:href="#DejaVuSans-65" transform="translate(1836.189453 0)"/>
    <use xlink:href="#DejaVuSans-73" transform="translate(1897.712891 0)"/>
    <use xlink:href="#DejaVuSans-20" transform="translate(1949.8125 0)"/>
    <use xlink:href="#DejaVuSans-61" transform="translate(1981.599609 0)"/>
    <use xlink:href="#DejaVuSans-20" transform="translate(2042.878906 0)"/>
    <use xlink:href="#DejaVuSans-6c" transform="translate(2074.666016 0)"/>
    <use xlink:href="#DejaVuSans-6f" transform="translate(2102.449219 0)"/>
    <use xlink:href="#DejaVuSans-77" transform="translate(2163.630859 0)"/>
    <use xlink:href="#DejaVuSans-65" transform="translate(2245.417969 0)"/>
    <use xlink:href="#DejaVuSans-72" transform="translate(2306.941406 0)"/>
    <use xlink:href="#DejaVuSans-20" transform="translate(2348.054688 0)"/>
    <use xlink:href="#DejaVuSans-62" transform="translate(2379.841797 0)"/>
    <use xlink:href="#DejaVuSans-6f" transform="translate(2443.318359 0)"/>
    <use xlink:href="#DejaVuSans-75" transform="translate(2504.5 0)"/>
    <use xlink:href="#DejaVuSans-6e" transform="translate(2567.878906 0)"/>
    <use xlink:href="#DejaVuSans-64" transform="translate(2631.257812 0)"/>
    <use xlink:href="#DejaVuSans-20" transform="translate(2694.734375 0)"/>
    <use xlink:href="#DejaVuSans-77" transform="translate(2726.521484 0)"/>
    <use xlink:href="#DejaVuSans-68" transform="translate(2808.308594 0)"/>
    <use xlink:href="#DejaVuSans-65" transform="translate(2871.6875 0)"/>
    <use xlink:href="#DejaVuSans-6e" transform="translate(2933.210938 0)"/>
    <use xlink:href="#DejaVuSans-20" transform="translate(2996.589844 0)"/>
    <use xlink:href="#DejaVuSans-6f" transform="translate(3028.376953 0)"/>
    <use xlink:href="#DejaVuSans-75" transform="translate(3089.558594 0)"/>
    <use xlink:href="#DejaVuSans-74" transform="translate(3152.9375 0)"/>
    <use xlink:href="#DejaVuSans-63" transform="translate(3192.146484 0)"/>
    <use xlink:href="#DejaVuSans-6f" transform="translate(3247.126953 0)"/>
    <use xlink:href="#DejaVuSans-6d" transform="translate(3308.308594 0)"/>
    <use xlink:href="#DejaVuSans-65" transform="translate(3405.720703 0)"/>
    <use xlink:href="#DejaVuSans-73" transform="translate(3467.244141 0)"/>
    <use xlink:href="#DejaVuSans-20" transform="translate(3519.34375 0)"/>
    <use xlink:href="#DejaVuSans-61" transform="translate(3551.130859 0)"/>
    <use xlink:href="#DejaVuSans-72" transform="translate(3612.410156 0)"/>
    <use xlink:href="#DejaVuSans-65" transform="translate(3651.273438 0)"/>
    <use xlink:href="#DejaVuSans-20" transform="translate(3712.796875 0)"/>
    <use xlink:href="#DejaVuSans-75" transform="translate(3744.583984 0)"/>
    <use xlink:href="#DejaVuSans-6e" transform="translate(3807.962891 0)"/>
    <use xlink:href="#DejaVuSans-61" transform="translate(3871.341797 0)"/>
    <use xlink:href="#DejaVuSans-76" transform="translate(3932.621094 0)"/>
    <use xlink:href="#DejaVuSans-61" transform="translate(3991.800781 0)"/>
    <use xlink:href="#DejaVuSans-69" transform="translate(4053.080078 0)"/>
    <use xlink:href="#DejaVuSans-6c" transform="translate(4080.863281 0)"/>
    <use xlink:href="#DejaVuSans-61" transform="translate(4108.646484 0)"/>
    <use xlink:href="#DejaVuSans-62" transform="translate(4169.925781 0)"/>
    <use xlink:href="#DejaVuSans-6c" transform="translate(4233.402344 0)"/>
    <use xlink:href="#DejaVuSans-65" transform="translate(4261.185547 0)"/>
    <use xlink:href="#DejaVuSans-2e" transform="translate(4322.708984 0)"/>
    <use xlink:href="#DejaVuSans-20" transform="translate(4354.496094 0)"/>
    <use xlink:href="#DejaVuSans-4e" transform="translate(4386.283203 0)"/>
    <use xlink:href="#DejaVuSans-6f" transform="translate(4461.087891 0)"/>
    <use xlink:href="#DejaVuSans-20" transform="translate(4522.269531 0)"/>
    <use xlink:href="#DejaVuSans-70" transform="translate(4554.056641 0)"/>
    <use xlink:href="#DejaVuSans-6f" transform="translate(4617.533203 0)"/>
    <use xlink:href="#DejaVuSans-70" transform="translate(4678.714844 0)"/>
    <use xlink:href="#DejaVuSans-75" transform="translate(4742.191406 0)"/>
    <use xlink:href="#DejaVuSans-6c" transform="translate(4805.570312 0)"/>
    <use xlink:href="#DejaVuSans-61" transform="translate(4833.353516 0)"/>
    <use xlink:href="#DejaVuSans-74" transform="translate(4894.632812 0)"/>
    <use xlink:href="#DejaVuSans-69" transform="translate(4933.841797 0)"/>
    <use xlink:href="#DejaVuSans-6f" transform="translate(4961.625 0)"/>
    <use xlink:href="#DejaVuSans-6e" transform="translate(5022.806641 0)"/>
    <use xlink:href="#DejaVuSans-20" transform="translate(5086.185547 0)"/>
    <use xlink:href="#DejaVuSans-69" transform="translate(5117.972656 0)"/>
    <use xlink:href="#DejaVuSans-6e" transform="translate(5145.755859 0)"/>
    <use xlink:href="#DejaVuSans-74" transform="translate(5209.134766 0)"/>
    <use xlink:href="#DejaVuSans-65" transform="translate(5248.34375 0)"/>
    <use xlink:href="#DejaVuSans-72" transform="translate(5309.867188 0)"/>
    <use xlink:href="#DejaVuSans-76" transform="translate(5350.980469 0)"/>
    <use xlink:href="#DejaVuSans-61" transform="translate(5410.160156 0)"/>
    <use xlink:href="#DejaVuSans-6c" transform="translate(5471.439453 0)"/>
    <use xlink:href="#DejaVuSans-20" transform="translate(5499.222656 0)"/>
    <use xlink:href="#DejaVuSans-66" transform="translate(5531.009766 0)"/>
    <use xlink:href="#DejaVuSans-6f" transform="translate(5566.214844 0)"/>
    <use xlink:href="#DejaVuSans-72" transform="translate(5627.396484 0)"/>
    <use xlink:href="#DejaVuSans-20" transform="translate(5668.509766 0)"/>
    <use xlink:href="#DejaVuSans-6f" transform="translate(5700.296875 0)"/>
    <use xlink:href="#DejaVuSans-6e" transform="translate(5761.478516 0)"/>
    <use xlink:href="#DejaVuSans-65" transform="translate(5824.857422 0)"/>
    <use xlink:href="#DejaVuSans-20" transform="translate(5886.380859 0)"/>
    <use xlink:href="#DejaVuSans-67" transform="translate(5918.167969 0)"/>
    <use xlink:href="#DejaVuSans-72" transform="translate(5981.644531 0)"/>
    <use xlink:href="#DejaVuSans-6f" transform="translate(6020.507812 0)"/>
    <use xlink:href="#DejaVuSans-75" transform="translate(6081.689453 0)"/>
    <use xlink:href="#DejaVuSans-70" transform="translate(6145.068359 0)"/>
    <use xlink:href="#DejaVuSans-2e" transform="translate(6208.544922 0)"/>
   </g>
   <!-- Cases have prior metadata/source exposure and uncertain predictor-training membership; no general superiority claim. -->
   <g style="fill: #535e68" transform="translate(7.2 426.24) scale(0.08 -0.08)">
    <defs>
     <path id="DejaVuSans-78" d="M 3513 3500 
L 2247 1797 
L 3578 0 
L 2900 0 
L 1881 1375 
L 863 0 
L 184 0 
L 1544 1831 
L 300 3500 
L 978 3500 
L 1906 2253 
L 2834 3500 
L 3513 3500 
z
" transform="scale(0.015625)"/>
    </defs>
    <use xlink:href="#DejaVuSans-43"/>
    <use xlink:href="#DejaVuSans-61" transform="translate(69.824219 0)"/>
    <use xlink:href="#DejaVuSans-73" transform="translate(131.103516 0)"/>
    <use xlink:href="#DejaVuSans-65" transform="translate(183.203125 0)"/>
    <use xlink:href="#DejaVuSans-73" transform="translate(244.726562 0)"/>
    <use xlink:href="#DejaVuSans-20" transform="translate(296.826172 0)"/>
    <use xlink:href="#DejaVuSans-68" transform="translate(328.613281 0)"/>
    <use xlink:href="#DejaVuSans-61" transform="translate(391.992188 0)"/>
    <use xlink:href="#DejaVuSans-76" transform="translate(453.271484 0)"/>
    <use xlink:href="#DejaVuSans-65" transform="translate(512.451172 0)"/>
    <use xlink:href="#DejaVuSans-20" transform="translate(573.974609 0)"/>
    <use xlink:href="#DejaVuSans-70" transform="translate(605.761719 0)"/>
    <use xlink:href="#DejaVuSans-72" transform="translate(669.238281 0)"/>
    <use xlink:href="#DejaVuSans-69" transform="translate(710.351562 0)"/>
    <use xlink:href="#DejaVuSans-6f" transform="translate(738.134766 0)"/>
    <use xlink:href="#DejaVuSans-72" transform="translate(799.316406 0)"/>
    <use xlink:href="#DejaVuSans-20" transform="translate(840.429688 0)"/>
    <use xlink:href="#DejaVuSans-6d" transform="translate(872.216797 0)"/>
    <use xlink:href="#DejaVuSans-65" transform="translate(969.628906 0)"/>
    <use xlink:href="#DejaVuSans-74" transform="translate(1031.152344 0)"/>
    <use xlink:href="#DejaVuSans-61" transform="translate(1070.361328 0)"/>
    <use xlink:href="#DejaVuSans-64" transform="translate(1131.640625 0)"/>
    <use xlink:href="#DejaVuSans-61" transform="translate(1195.117188 0)"/>
    <use xlink:href="#DejaVuSans-74" transform="translate(1256.396484 0)"/>
    <use xlink:href="#DejaVuSans-61" transform="translate(1295.605469 0)"/>
    <use xlink:href="#DejaVuSans-2f" transform="translate(1356.884766 0)"/>
    <use xlink:href="#DejaVuSans-73" transform="translate(1390.576172 0)"/>
    <use xlink:href="#DejaVuSans-6f" transform="translate(1442.675781 0)"/>
    <use xlink:href="#DejaVuSans-75" transform="translate(1503.857422 0)"/>
    <use xlink:href="#DejaVuSans-72" transform="translate(1567.236328 0)"/>
    <use xlink:href="#DejaVuSans-63" transform="translate(1606.099609 0)"/>
    <use xlink:href="#DejaVuSans-65" transform="translate(1661.080078 0)"/>
    <use xlink:href="#DejaVuSans-20" transform="translate(1722.603516 0)"/>
    <use xlink:href="#DejaVuSans-65" transform="translate(1754.390625 0)"/>
    <use xlink:href="#DejaVuSans-78" transform="translate(1814.164062 0)"/>
    <use xlink:href="#DejaVuSans-70" transform="translate(1873.34375 0)"/>
    <use xlink:href="#DejaVuSans-6f" transform="translate(1936.820312 0)"/>
    <use xlink:href="#DejaVuSans-73" transform="translate(1998.001953 0)"/>
    <use xlink:href="#DejaVuSans-75" transform="translate(2050.101562 0)"/>
    <use xlink:href="#DejaVuSans-72" transform="translate(2113.480469 0)"/>
    <use xlink:href="#DejaVuSans-65" transform="translate(2152.34375 0)"/>
    <use xlink:href="#DejaVuSans-20" transform="translate(2213.867188 0)"/>
    <use xlink:href="#DejaVuSans-61" transform="translate(2245.654297 0)"/>
    <use xlink:href="#DejaVuSans-6e" transform="translate(2306.933594 0)"/>
    <use xlink:href="#DejaVuSans-64" transform="translate(2370.3125 0)"/>
    <use xlink:href="#DejaVuSans-20" transform="translate(2433.789062 0)"/>
    <use xlink:href="#DejaVuSans-75" transform="translate(2465.576172 0)"/>
    <use xlink:href="#DejaVuSans-6e" transform="translate(2528.955078 0)"/>
    <use xlink:href="#DejaVuSans-63" transform="translate(2592.333984 0)"/>
    <use xlink:href="#DejaVuSans-65" transform="translate(2647.314453 0)"/>
    <use xlink:href="#DejaVuSans-72" transform="translate(2708.837891 0)"/>
    <use xlink:href="#DejaVuSans-74" transform="translate(2749.951172 0)"/>
    <use xlink:href="#DejaVuSans-61" transform="translate(2789.160156 0)"/>
    <use xlink:href="#DejaVuSans-69" transform="translate(2850.439453 0)"/>
    <use xlink:href="#DejaVuSans-6e" transform="translate(2878.222656 0)"/>
    <use xlink:href="#DejaVuSans-20" transform="translate(2941.601562 0)"/>
    <use xlink:href="#DejaVuSans-70" transform="translate(2973.388672 0)"/>
    <use xlink:href="#DejaVuSans-72" transform="translate(3036.865234 0)"/>
    <use xlink:href="#DejaVuSans-65" transform="translate(3075.728516 0)"/>
    <use xlink:href="#DejaVuSans-64" transform="translate(3137.251953 0)"/>
    <use xlink:href="#DejaVuSans-69" transform="translate(3200.728516 0)"/>
    <use xlink:href="#DejaVuSans-63" transform="translate(3228.511719 0)"/>
    <use xlink:href="#DejaVuSans-74" transform="translate(3283.492188 0)"/>
    <use xlink:href="#DejaVuSans-6f" transform="translate(3322.701172 0)"/>
    <use xlink:href="#DejaVuSans-72" transform="translate(3383.882812 0)"/>
    <use xlink:href="#DejaVuSans-2d" transform="translate(3418.621094 0)"/>
    <use xlink:href="#DejaVuSans-74" transform="translate(3454.705078 0)"/>
    <use xlink:href="#DejaVuSans-72" transform="translate(3493.914062 0)"/>
    <use xlink:href="#DejaVuSans-61" transform="translate(3535.027344 0)"/>
    <use xlink:href="#DejaVuSans-69" transform="translate(3596.306641 0)"/>
    <use xlink:href="#DejaVuSans-6e" transform="translate(3624.089844 0)"/>
    <use xlink:href="#DejaVuSans-69" transform="translate(3687.46875 0)"/>
    <use xlink:href="#DejaVuSans-6e" transform="translate(3715.251953 0)"/>
    <use xlink:href="#DejaVuSans-67" transform="translate(3778.630859 0)"/>
    <use xlink:href="#DejaVuSans-20" transform="translate(3842.107422 0)"/>
    <use xlink:href="#DejaVuSans-6d" transform="translate(3873.894531 0)"/>
    <use xlink:href="#DejaVuSans-65" transform="translate(3971.306641 0)"/>
    <use xlink:href="#DejaVuSans-6d" transform="translate(4032.830078 0)"/>
    <use xlink:href="#DejaVuSans-62" transform="translate(4130.242188 0)"/>
    <use xlink:href="#DejaVuSans-65" transform="translate(4193.71875 0)"/>
    <use xlink:href="#DejaVuSans-72" transform="translate(4255.242188 0)"/>
    <use xlink:href="#DejaVuSans-73" transform="translate(4296.355469 0)"/>
    <use xlink:href="#DejaVuSans-68" transform="translate(4348.455078 0)"/>
    <use xlink:href="#DejaVuSans-69" transform="translate(4411.833984 0)"/>
    <use xlink:href="#DejaVuSans-70" transform="translate(4439.617188 0)"/>
    <use xlink:href="#DejaVuSans-3b" transform="translate(4503.09375 0)"/>
    <use xlink:href="#DejaVuSans-20" transform="translate(4536.785156 0)"/>
    <use xlink:href="#DejaVuSans-6e" transform="translate(4568.572266 0)"/>
    <use xlink:href="#DejaVuSans-6f" transform="translate(4631.951172 0)"/>
    <use xlink:href="#DejaVuSans-20" transform="translate(4693.132812 0)"/>
    <use xlink:href="#DejaVuSans-67" transform="translate(4724.919922 0)"/>
    <use xlink:href="#DejaVuSans-65" transform="translate(4788.396484 0)"/>
    <use xlink:href="#DejaVuSans-6e" transform="translate(4849.919922 0)"/>
    <use xlink:href="#DejaVuSans-65" transform="translate(4913.298828 0)"/>
    <use xlink:href="#DejaVuSans-72" transform="translate(4974.822266 0)"/>
    <use xlink:href="#DejaVuSans-61" transform="translate(5015.935547 0)"/>
    <use xlink:href="#DejaVuSans-6c" transform="translate(5077.214844 0)"/>
    <use xlink:href="#DejaVuSans-20" transform="translate(5104.998047 0)"/>
    <use xlink:href="#DejaVuSans-73" transform="translate(5136.785156 0)"/>
    <use xlink:href="#DejaVuSans-75" transform="translate(5188.884766 0)"/>
    <use xlink:href="#DejaVuSans-70" transform="translate(5252.263672 0)"/>
    <use xlink:href="#DejaVuSans-65" transform="translate(5315.740234 0)"/>
    <use xlink:href="#DejaVuSans-72" transform="translate(5377.263672 0)"/>
    <use xlink:href="#DejaVuSans-69" transform="translate(5418.376953 0)"/>
    <use xlink:href="#DejaVuSans-6f" transform="translate(5446.160156 0)"/>
    <use xlink:href="#DejaVuSans-72" transform="translate(5507.341797 0)"/>
    <use xlink:href="#DejaVuSans-69" transform="translate(5548.455078 0)"/>
    <use xlink:href="#DejaVuSans-74" transform="translate(5576.238281 0)"/>
    <use xlink:href="#DejaVuSans-79" transform="translate(5615.447266 0)"/>
    <use xlink:href="#DejaVuSans-20" transform="translate(5674.626953 0)"/>
    <use xlink:href="#DejaVuSans-63" transform="translate(5706.414062 0)"/>
    <use xlink:href="#DejaVuSans-6c" transform="translate(5761.394531 0)"/>
    <use xlink:href="#DejaVuSans-61" transform="translate(5789.177734 0)"/>
    <use xlink:href="#DejaVuSans-69" transform="translate(5850.457031 0)"/>
    <use xlink:href="#DejaVuSans-6d" transform="translate(5878.240234 0)"/>
    <use xlink:href="#DejaVuSans-2e" transform="translate(5975.652344 0)"/>
   </g>
  </g>
  <g id="legend_1">
   <g id="line2d_20">
    <path d="M 10.8 374.238281 
L 19.8 374.238281 
L 28.8 374.238281 
" style="fill: none; stroke: #4d6172; stroke-linecap: square"/>
    <defs>
     <path id="md09060a7fb" d="M 0 3 
C 0.795609 3 1.55874 2.683901 2.12132 2.12132 
C 2.683901 1.55874 3 0.795609 3 0 
C 3 -0.795609 2.683901 -1.55874 2.12132 -2.12132 
C 1.55874 -2.683901 0.795609 -3 0 -3 
C -0.795609 -3 -1.55874 -2.683901 -2.12132 -2.12132 
C -2.683901 -1.55874 -3 -0.795609 -3 0 
C -3 0.795609 -2.683901 1.55874 -2.12132 2.12132 
C -1.55874 2.683901 -0.795609 3 0 3 
z
" style="stroke: #4d6172"/>
    </defs>
    <g>
     <use xlink:href="#md09060a7fb" x="19.8" y="374.238281" style="fill: #4d6172; stroke: #4d6172"/>
    </g>
   </g>
   <g id="text_22">
    <!-- Predictor confidence -->
    <g transform="translate(36 377.388281) scale(0.09 -0.09)">
     <use xlink:href="#DejaVuSans-50"/>
     <use xlink:href="#DejaVuSans-72" transform="translate(58.552734 0)"/>
     <use xlink:href="#DejaVuSans-65" transform="translate(97.416016 0)"/>
     <use xlink:href="#DejaVuSans-64" transform="translate(158.939453 0)"/>
     <use xlink:href="#DejaVuSans-69" transform="translate(222.416016 0)"/>
     <use xlink:href="#DejaVuSans-63" transform="translate(250.199219 0)"/>
     <use xlink:href="#DejaVuSans-74" transform="translate(305.179688 0)"/>
     <use xlink:href="#DejaVuSans-6f" transform="translate(344.388672 0)"/>
     <use xlink:href="#DejaVuSans-72" transform="translate(405.570312 0)"/>
     <use xlink:href="#DejaVuSans-20" transform="translate(446.683594 0)"/>
     <use xlink:href="#DejaVuSans-63" transform="translate(478.470703 0)"/>
     <use xlink:href="#DejaVuSans-6f" transform="translate(533.451172 0)"/>
     <use xlink:href="#DejaVuSans-6e" transform="translate(594.632812 0)"/>
     <use xlink:href="#DejaVuSans-66" transform="translate(658.011719 0)"/>
     <use xlink:href="#DejaVuSans-69" transform="translate(693.216797 0)"/>
     <use xlink:href="#DejaVuSans-64" transform="translate(721 0)"/>
     <use xlink:href="#DejaVuSans-65" transform="translate(784.476562 0)"/>
     <use xlink:href="#DejaVuSans-6e" transform="translate(846 0)"/>
     <use xlink:href="#DejaVuSans-63" transform="translate(909.378906 0)"/>
     <use xlink:href="#DejaVuSans-65" transform="translate(964.359375 0)"/>
    </g>
   </g>
  </g>
 </g>
 <defs>
  <clipPath id="pc77b1a28e9">
   <rect x="156.67" y="114" width="529.324262" height="201.16"/>
  </clipPath>
  <clipPath id="p21fba73db8">
   <rect x="696.794262" y="114" width="172.605738" height="201.16"/>
  </clipPath>
 </defs>
</svg>
